<svg xmlns="http://www.w3.org/2000/svg" width="45" height="45" viewBox="0 0 45 45" fill="none"><path d="M22.5 45C34.9264 45 45 34.9264 45 22.5C45 10.0736 34.9264 0 22.5 0C10.0736 0 0 10.0736 0 22.5C0 34.9264 10.0736 45 22.5 45Z" fill="black"></path><path d="M25.806 28.53V31.69H19.449V28.53H17.491V31.69H10V33.59H35.256V31.69H27.766V28.53H25.806Z" fill="white"></path><path d="M30.097 19.993C29.7211 19.3588 29.1919 18.8293 28.558 18.453C27.9194 18.0702 27.1875 17.8712 26.443 17.878H18.812C18.0675 17.8712 17.3356 18.0702 16.697 18.453C16.0631 18.8293 15.5339 19.3588 15.158 19.993C14.7812 20.6341 14.5825 21.3643 14.5825 22.108C14.5825 22.8517 14.7812 23.5819 15.158 24.223C15.534 24.8568 16.0632 25.386 16.697 25.762C17.3358 26.1444 18.0676 26.3434 18.812 26.337H26.443C27.1874 26.3434 27.9192 26.1444 28.558 25.762C29.1918 25.386 29.721 24.8568 30.097 24.223C30.4738 23.5819 30.6725 22.8517 30.6725 22.108C30.6725 21.3643 30.4738 20.6341 30.097 19.993ZM27.823 23.431C27.6029 23.812 27.2864 24.1284 26.9053 24.3483C26.5243 24.5683 26.092 24.684 25.652 24.684H19.519C18.854 24.684 18.2162 24.4198 17.7459 23.9496C17.2757 23.4793 17.0115 22.8415 17.0115 22.1765C17.0115 21.5115 17.2757 20.8737 17.7459 20.4034C18.2162 19.9332 18.854 19.669 19.519 19.669H25.652C26.0924 19.6665 26.5253 19.783 26.905 20.006C27.1908 20.1699 27.4413 20.3887 27.6422 20.6497C27.8431 20.9108 27.9905 21.209 28.0758 21.5272C28.1611 21.8453 28.1827 22.1773 28.1393 22.5038C28.0959 22.8304 27.9884 23.1451 27.823 23.43" fill="white"></path><path d="M32.953 14.284H12.303V16.184H32.953V14.284Z" fill="white"></path><path d="M27.427 11H17.829V12.9H27.427V11Z" fill="white"></path></svg>