<svg xmlns="http://www.w3.org/2000/svg" width="144" height="284" viewBox="0 0 144 284" fill="none"><path d="M107.287 75.54L98.494 42.207L92.132 17.213H75.314L79.431 32.82H56.326V0.048H39.338V75.54H56.326V49.976H83.74L90.467 75.54H107.287ZM34.764 31.093V28.478H24.453V24.13H21.753V28.478H13.007V24.13H10.307V28.478H0V31.093H34.764ZM7.1 12.377C6.58135 13.2594 6.30789 14.2644 6.30789 15.288C6.30789 16.3116 6.58135 17.3166 7.1 18.199C7.61759 19.0718 8.34625 19.8004 9.219 20.318C10.0981 20.8446 11.1053 21.1187 12.13 21.11H22.63C23.6547 21.1184 24.6619 20.8444 25.541 20.318C26.4148 19.8008 27.1448 19.0726 27.664 18.2C28.1826 17.3176 28.4561 16.3126 28.4561 15.289C28.4561 14.2654 28.1826 13.2604 27.664 12.378C27.146 11.5055 26.4175 10.777 25.545 10.259C24.6659 9.73258 23.6587 9.45856 22.634 9.467H12.13C11.1053 9.45835 10.0981 9.73239 9.219 10.259C8.34637 10.7763 7.61773 11.5046 7.1 12.377ZM9.65 15.383C9.65106 14.4681 10.0148 13.591 10.6615 12.9439C11.3082 12.2969 12.1851 11.9326 13.1 11.931H21.542C22.4367 11.9615 23.2845 12.3383 23.9066 12.982C24.5288 13.6256 24.8765 14.4858 24.8765 15.381C24.8765 16.2762 24.5288 17.1364 23.9066 17.78C23.2845 18.4237 22.4367 18.8005 21.542 18.831H13.1C12.186 18.8294 11.3099 18.4658 10.6633 17.8198C10.0167 17.1738 9.65238 16.297 9.65 15.383ZM3.169 7.136H31.594V4.521H3.169V7.136ZM10.775 2.615H23.987V0H10.776L10.775 2.615Z" fill="black"></path><path d="M97.862 221.942C99.6702 217.778 100.587 213.282 100.554 208.742C100.576 204.257 99.6587 199.817 97.862 195.707C94.4105 187.66 87.998 181.247 79.951 177.796C75.8413 175.999 71.4012 175.082 66.916 175.104C62.3764 175.071 57.8801 175.988 53.716 177.796C45.6684 181.247 39.2554 187.66 35.804 195.707C34.0067 199.816 33.0903 204.257 33.114 208.742C33.0789 213.282 33.9953 217.778 35.804 221.942C39.2548 229.99 45.6679 236.403 53.716 239.854C57.8798 241.663 62.3764 242.579 66.916 242.544C71.4012 242.568 75.8416 241.651 79.951 239.854C87.9985 236.403 94.4111 229.99 97.862 221.942Z" fill="black"></path><path d="M143.542 282.826V276.307C143.619 275.26 143.287 274.224 142.616 273.417C142.297 273.09 141.913 272.834 141.489 272.666C141.064 272.498 140.609 272.421 140.153 272.441C139.506 272.383 138.856 272.528 138.295 272.857C137.734 273.186 137.29 273.681 137.024 274.274C137.031 273.74 137.005 273.205 136.945 272.674H135.031C135.044 273.193 135.051 274.044 135.051 275.227V282.822H137.024V277.399C137.024 275.194 137.861 274.092 139.536 274.091C140.905 274.091 141.589 274.908 141.589 276.542V282.822L143.542 282.826ZM139.119 263.545C139.993 262.466 140.446 261.107 140.394 259.719C140.462 258.324 140.003 256.953 139.108 255.881C138.68 255.403 138.151 255.026 137.56 254.776C136.969 254.527 136.33 254.411 135.689 254.437C135.024 254.405 134.359 254.522 133.745 254.781C133.131 255.04 132.583 255.433 132.142 255.932C131.305 257.029 130.85 258.371 130.846 259.751C130.842 261.131 131.29 262.475 132.121 263.577C132.547 264.069 133.078 264.457 133.675 264.715C134.273 264.972 134.92 265.091 135.57 265.062C136.238 265.096 136.905 264.978 137.52 264.715C138.135 264.452 138.682 264.051 139.119 263.545ZM138.401 259.759C138.452 260.71 138.197 261.653 137.674 262.449C137.447 262.771 137.143 263.032 136.789 263.206C136.436 263.381 136.044 263.464 135.65 263.449C135.253 263.46 134.859 263.372 134.504 263.192C134.149 263.013 133.844 262.749 133.617 262.423C133.081 261.635 132.815 260.694 132.859 259.742C132.804 258.786 133.051 257.838 133.567 257.031C133.799 256.711 134.107 256.453 134.464 256.283C134.821 256.112 135.215 256.034 135.61 256.054C136.01 256.036 136.408 256.118 136.768 256.292C137.128 256.467 137.439 256.729 137.673 257.054C138.198 257.857 138.452 258.807 138.4 259.765L138.401 259.759ZM130.954 273.892C130.526 273.414 129.997 273.037 129.406 272.787C128.815 272.538 128.176 272.422 127.535 272.448C126.869 272.414 126.204 272.529 125.589 272.787C124.974 273.044 124.425 273.436 123.982 273.934C123.145 275.032 122.691 276.373 122.687 277.753C122.683 279.133 123.131 280.477 123.962 281.579C124.388 282.07 124.919 282.459 125.516 282.716C126.114 282.974 126.761 283.092 127.411 283.064C128.079 283.098 128.745 282.98 129.36 282.717C129.975 282.454 130.521 282.054 130.958 281.548C131.833 280.469 132.286 279.11 132.234 277.722C132.302 276.327 131.843 274.956 130.948 273.884L130.954 273.892ZM130.24 277.762C130.29 278.713 130.035 279.656 129.513 280.452C129.286 280.774 128.982 281.035 128.628 281.209C128.275 281.384 127.883 281.467 127.489 281.452C127.092 281.463 126.698 281.375 126.343 281.195C125.988 281.016 125.683 280.752 125.456 280.426C124.92 279.638 124.654 278.697 124.698 277.745C124.643 276.789 124.89 275.841 125.406 275.034C125.638 274.714 125.946 274.456 126.303 274.286C126.66 274.115 127.054 274.037 127.449 274.057C127.849 274.039 128.247 274.121 128.607 274.295C128.968 274.47 129.278 274.732 129.512 275.057C130.036 275.861 130.291 276.81 130.239 277.768L130.24 277.762ZM126.182 264.82H128.076C128.063 264.169 128.056 263.219 128.056 261.97V250.208H126.102V255.67C125.689 254.846 124.758 254.434 123.311 254.434C122.677 254.41 122.045 254.534 121.467 254.797C120.889 255.059 120.381 255.454 119.982 255.948C119.123 257.064 118.686 258.448 118.747 259.855C118.682 261.205 119.087 262.537 119.892 263.623C120.256 264.088 120.724 264.461 121.26 264.71C121.795 264.96 122.382 265.079 122.972 265.058C123.595 265.131 124.226 265.017 124.783 264.729C125.341 264.441 125.8 263.993 126.101 263.443C126.096 263.903 126.122 264.363 126.18 264.819L126.182 264.82ZM126.16 259.619C126.165 260.116 126.129 260.613 126.05 261.104C125.978 261.517 125.843 261.917 125.65 262.29C125.464 262.655 125.167 262.951 124.802 263.136C124.365 263.344 123.885 263.443 123.402 263.426C123.031 263.433 122.664 263.349 122.333 263.182C122.002 263.016 121.717 262.77 121.502 262.468C120.974 261.682 120.718 260.744 120.775 259.798C120.715 258.827 120.97 257.862 121.502 257.047C121.736 256.729 122.045 256.473 122.401 256.303C122.758 256.133 123.15 256.053 123.545 256.071C123.937 256.021 124.336 256.076 124.7 256.23C125.064 256.384 125.381 256.632 125.618 256.948C126.031 257.775 126.217 258.696 126.156 259.618L126.16 259.619ZM119.876 268.218H117.922V270.47H119.882L119.876 268.218ZM113.997 264.825H115.951V258.307C116.028 257.26 115.696 256.223 115.024 255.416C114.706 255.089 114.321 254.833 113.897 254.664C113.472 254.496 113.017 254.42 112.561 254.44C111.914 254.382 111.264 254.527 110.703 254.856C110.142 255.185 109.698 255.68 109.432 256.273C109.439 255.739 109.413 255.204 109.353 254.673H107.443C107.456 255.192 107.463 256.043 107.463 257.226V264.821H109.436V259.398C109.436 257.193 110.273 256.091 111.948 256.09C113.317 256.09 114.001 256.907 114.002 258.541L113.997 264.825ZM107.537 275.794C107.537 273.561 106.235 272.445 103.63 272.445C102.573 272.342 101.517 272.649 100.679 273.302C100.061 273.872 99.683 274.656 99.622 275.495H101.522C101.596 275.068 101.789 274.67 102.08 274.348C102.507 274.025 103.043 273.878 103.575 273.939C104.944 273.939 105.628 274.564 105.629 275.813V276.63H103.954C102.713 276.555 101.476 276.843 100.395 277.457C99.9867 277.728 99.6566 278.102 99.438 278.541C99.2193 278.979 99.1197 279.468 99.149 279.957C99.1425 280.361 99.2159 280.763 99.3648 281.139C99.5137 281.516 99.7354 281.859 100.017 282.149C100.356 282.472 100.76 282.721 101.201 282.879C101.642 283.037 102.112 283.101 102.579 283.067C103.181 283.142 103.792 283.039 104.337 282.773C104.882 282.507 105.338 282.088 105.649 281.567C105.669 281.991 105.729 282.412 105.828 282.824H107.682C107.567 282.066 107.52 281.299 107.543 280.532L107.537 275.794ZM105.643 278.265C105.648 278.689 105.618 279.112 105.553 279.531C105.492 279.89 105.374 280.237 105.204 280.559C105.028 280.895 104.743 281.161 104.397 281.316C103.96 281.503 103.486 281.591 103.011 281.575C102.762 281.59 102.512 281.555 102.275 281.474C102.039 281.392 101.822 281.264 101.635 281.098C101.468 280.935 101.338 280.739 101.252 280.523C101.165 280.306 101.126 280.074 101.135 279.841C101.135 278.579 102.118 277.948 104.084 277.947H105.639L105.643 278.265ZM40.582 254.673H38.87V256.228H40.582V262.388C40.526 263.082 40.7243 263.773 41.14 264.332C41.3769 264.559 41.6597 264.732 41.9694 264.841C42.2791 264.949 42.6084 264.989 42.935 264.959C43.4657 264.981 43.9967 264.92 44.509 264.78V263.325C44.2348 263.389 43.9533 263.415 43.672 263.404C43.5066 263.425 43.3386 263.406 43.1821 263.349C43.0255 263.292 42.8849 263.198 42.772 263.075C42.5855 262.745 42.5022 262.367 42.533 261.989V256.228H44.726V254.673H42.538V251.724H40.582V254.673ZM39.426 279.955C39.4195 280.36 39.4929 280.761 39.6418 281.137C39.7907 281.514 40.0124 281.857 40.294 282.147C40.6331 282.47 41.0362 282.719 41.4773 282.877C41.9184 283.035 42.3877 283.099 42.855 283.065C43.4571 283.14 44.0679 283.038 44.6131 282.772C45.1582 282.505 45.614 282.086 45.925 281.565C45.9457 281.989 46.0059 282.41 46.105 282.822H47.959C47.8428 282.064 47.7959 281.297 47.819 280.53V275.786C47.819 273.553 46.5167 272.437 43.912 272.437C42.8555 272.334 41.8 272.641 40.963 273.294C40.3441 273.864 39.966 274.648 39.906 275.487H41.8C41.8731 275.059 42.0667 274.661 42.358 274.34C42.7852 274.016 43.3206 273.87 43.853 273.931C45.2217 273.931 45.906 274.556 45.906 275.805V276.622H44.232C42.9909 276.547 41.7549 276.835 40.674 277.449C40.2656 277.72 39.9356 278.094 39.717 278.533C39.4983 278.971 39.3987 279.46 39.428 279.949L39.426 279.955ZM41.421 279.829C41.421 278.567 42.4047 277.936 44.372 277.935H45.926V278.254C45.9311 278.678 45.9014 279.101 45.837 279.52C45.7744 279.879 45.6567 280.225 45.488 280.548C45.3114 280.884 45.0268 281.151 44.68 281.305C44.243 281.492 43.7701 281.581 43.295 281.564C43.0455 281.579 42.7956 281.544 42.5595 281.463C42.3234 281.381 42.1057 281.253 41.919 281.087C41.7523 280.924 41.6217 280.728 41.5356 280.512C41.4495 280.295 41.4097 280.063 41.419 279.83L41.421 279.829ZM47.35 264.137C47.6894 264.46 48.0926 264.709 48.5339 264.867C48.9751 265.025 49.4445 265.089 49.912 265.055C50.514 265.129 51.1248 265.027 51.6698 264.761C52.2149 264.495 52.6708 264.076 52.982 263.555C53.0013 263.979 53.0615 264.4 53.162 264.812H55.015C54.9 264.054 54.8534 263.287 54.876 262.52V257.784C54.876 255.551 53.5737 254.435 50.969 254.435C49.9119 254.332 48.8557 254.639 48.018 255.292C47.3999 255.862 47.022 256.646 46.961 257.485H48.855C48.9287 257.058 49.1222 256.66 49.413 256.338C49.8403 256.015 50.3756 255.868 50.908 255.929C52.2767 255.929 52.9613 256.554 52.962 257.803V258.62H51.29C50.0486 258.545 48.8122 258.832 47.731 259.447C47.3228 259.718 46.993 260.092 46.7745 260.531C46.5561 260.969 46.4566 261.458 46.486 261.947C46.4792 262.351 46.5522 262.753 46.7008 263.129C46.8494 263.505 47.0707 263.848 47.352 264.139L47.35 264.137ZM48.482 261.834C48.482 260.572 49.465 259.941 51.431 259.94H52.982V260.26C52.9868 260.684 52.9567 261.107 52.892 261.526C52.8304 261.884 52.7126 262.23 52.543 262.552C52.3669 262.888 52.0825 263.155 51.736 263.309C51.2986 263.496 50.8254 263.584 50.35 263.568C49.8462 263.597 49.3513 263.425 48.974 263.09C48.8088 262.927 48.6797 262.73 48.5949 262.514C48.5102 262.298 48.4717 262.066 48.482 261.834ZM52.308 279.899H50.352C50.4499 280.805 50.9012 281.636 51.608 282.212C52.4761 282.834 53.5323 283.137 54.598 283.069C55.6623 283.138 56.717 282.83 57.578 282.201C57.9139 281.934 58.1832 281.592 58.3647 281.203C58.5462 280.814 58.6349 280.388 58.624 279.959C58.6387 279.592 58.5792 279.226 58.4492 278.882C58.3191 278.538 58.1211 278.224 57.867 277.959C57.0041 277.281 55.9806 276.838 54.896 276.673C54.2743 276.558 53.6754 276.342 53.123 276.034C52.9822 275.939 52.8681 275.809 52.7914 275.657C52.7148 275.505 52.6781 275.336 52.685 275.166C52.6816 274.995 52.7166 274.825 52.7874 274.67C52.8581 274.514 52.9629 274.376 53.094 274.266C53.4792 273.993 53.9488 273.866 54.419 273.908C54.8901 273.842 55.3688 273.957 55.7577 274.231C56.1467 274.505 56.4167 274.917 56.513 275.383H58.382C58.3183 274.577 57.9392 273.828 57.327 273.3C56.5242 272.668 55.514 272.359 54.495 272.434C53.4854 272.357 52.4833 272.658 51.684 273.28C51.3883 273.532 51.1513 273.845 50.9896 274.198C50.8279 274.551 50.7454 274.935 50.748 275.323C50.7337 275.664 50.7916 276.005 50.9181 276.322C51.0446 276.64 51.2368 276.927 51.482 277.165C52.3178 277.789 53.2928 278.201 54.323 278.365C54.9697 278.486 55.5882 278.726 56.147 279.073C56.3024 279.198 56.4259 279.358 56.5072 279.54C56.5886 279.721 56.6256 279.92 56.615 280.119C56.615 281.076 55.9703 281.555 54.681 281.554C54.1497 281.628 53.6103 281.498 53.1704 281.191C52.7305 280.884 52.4225 280.423 52.308 279.899ZM57.708 259.861C57.6681 261.184 58.0719 262.482 58.855 263.549C59.2559 264.059 59.775 264.464 60.3674 264.728C60.9598 264.992 61.6077 265.108 62.255 265.065C62.8752 265.074 63.4923 264.976 64.079 264.775C64.5651 264.616 65.0094 264.35 65.379 263.997C65.6766 263.707 65.9345 263.379 66.146 263.021C66.3348 262.689 66.4886 262.339 66.605 261.975H64.626C64.4621 262.397 64.1904 262.768 63.838 263.052C63.3879 263.35 62.8516 263.491 62.313 263.452C61.9426 263.466 61.5744 263.389 61.2408 263.227C60.9072 263.066 60.6185 262.824 60.4 262.525C59.9083 261.823 59.6565 260.981 59.682 260.125H66.738C66.7694 259.847 66.7827 259.568 66.778 259.288C66.7802 258.709 66.7032 258.132 66.549 257.574C66.3949 257.026 66.1527 256.508 65.832 256.038C65.4793 255.538 65.0013 255.139 64.446 254.882C63.7977 254.579 63.0884 254.429 62.373 254.444C61.7179 254.406 61.0631 254.523 60.462 254.786C59.8609 255.049 59.3304 255.451 58.914 255.958C58.0731 257.082 57.647 258.462 57.708 259.865V259.861ZM59.741 258.788C59.9277 256.902 60.7983 255.959 62.353 255.958C62.6959 255.936 63.0391 255.996 63.3543 256.133C63.6696 256.27 63.9477 256.48 64.166 256.745C64.5993 257.336 64.8238 258.055 64.804 258.788H59.741ZM62.611 279.903H60.658C60.7562 280.809 61.2079 281.641 61.915 282.216C62.7831 282.838 63.8393 283.141 64.905 283.073C65.9693 283.141 67.0239 282.834 67.885 282.205C68.2207 281.938 68.4899 281.596 68.6714 281.207C68.8528 280.818 68.9417 280.392 68.931 279.963C68.9458 279.596 68.8863 279.229 68.756 278.886C68.6258 278.542 68.4275 278.228 68.173 277.963C67.3108 277.285 66.288 276.842 65.204 276.677C64.5813 276.56 63.9818 276.343 63.429 276.034C63.2882 275.939 63.1741 275.809 63.0974 275.657C63.0208 275.505 62.9841 275.336 62.991 275.166C62.9876 274.995 63.0226 274.825 63.0934 274.67C63.1641 274.514 63.2689 274.376 63.4 274.266C63.7851 273.993 64.2548 273.866 64.725 273.908C65.1959 273.842 65.6743 273.957 66.0629 274.231C66.4515 274.505 66.7212 274.917 66.817 275.383H68.691C68.6272 274.576 68.2473 273.828 67.634 273.3C66.832 272.668 65.8224 272.359 64.804 272.434C63.7944 272.357 62.7923 272.658 61.993 273.28C61.6973 273.532 61.4603 273.845 61.2986 274.198C61.1369 274.551 61.0544 274.935 61.057 275.323C61.0428 275.663 61.1001 276.002 61.2254 276.318C61.3506 276.634 61.5409 276.92 61.784 277.158C62.6198 277.782 63.5948 278.194 64.625 278.358C65.2716 278.479 65.8901 278.719 66.449 279.066C66.6044 279.191 66.728 279.351 66.8094 279.532C66.8907 279.714 66.9276 279.913 66.917 280.112C66.917 281.069 66.2723 281.548 64.983 281.547C64.4518 281.621 63.9123 281.491 63.4724 281.184C63.0325 280.877 62.7245 280.416 62.61 279.892L62.611 279.903ZM71.56 250.205H69.608V264.817H71.562V261.288L73.038 259.853L76.286 264.817H78.558L74.372 258.598L78.14 254.67H75.828C75.5613 254.963 74.8633 255.728 73.734 256.963C72.6047 258.198 71.8803 259.009 71.561 259.394L71.56 250.205ZM72.36 273.932C71.5226 275.029 71.0673 276.371 71.0637 277.751C71.0601 279.132 71.5084 280.475 72.34 281.577C72.7657 282.068 73.2969 282.457 73.894 282.714C74.4911 282.971 75.1385 283.09 75.788 283.062C76.456 283.097 77.1231 282.978 77.7382 282.715C78.3533 282.453 78.9002 282.053 79.337 281.546C80.2115 280.467 80.6649 279.108 80.613 277.72C80.6818 276.324 80.2223 274.954 79.326 273.882C78.898 273.404 78.3695 273.027 77.7786 272.777C77.1877 272.528 76.5489 272.412 75.908 272.438C75.2422 272.405 74.5776 272.523 73.9633 272.781C73.349 273.04 72.8007 273.434 72.359 273.933L72.36 273.932ZM73.077 277.741C73.0215 276.787 73.2682 275.84 73.782 275.034C74.0137 274.714 74.3219 274.456 74.6786 274.286C75.0353 274.115 75.4291 274.036 75.824 274.057C76.2239 274.039 76.622 274.121 76.9823 274.295C77.3425 274.47 77.6535 274.732 77.887 275.057C78.3632 275.877 78.614 276.809 78.614 277.757C78.614 278.705 78.3632 279.637 77.887 280.457C77.6602 280.779 77.3563 281.039 77.0031 281.214C76.65 281.389 76.2587 281.472 75.865 281.457C75.4675 281.468 75.0735 281.38 74.7185 281.201C74.3635 281.022 74.0585 280.757 73.831 280.431C73.2949 279.643 73.0293 278.702 73.074 277.75L73.077 277.741ZM78.994 254.681L81.925 264.828H84.097C85.3997 260.137 86.1043 257.459 86.211 256.794H86.231C86.2443 256.887 86.9287 259.565 88.284 264.828H90.398L93.508 254.681H91.536C90.3667 258.974 89.6557 261.699 89.403 262.855H89.382C89.276 262.284 88.572 259.559 87.27 254.681H85.377C84.1003 259.214 83.356 261.998 83.144 263.033H83.124C83.0047 262.29 82.3203 259.506 81.071 254.681H78.994ZM84.117 273.993C83.2606 275.077 82.8153 276.429 82.86 277.81C82.7867 279.194 83.2193 280.558 84.077 281.647C84.4909 282.123 85.0074 282.498 85.5875 282.745C86.1676 282.992 86.7963 283.104 87.426 283.073C88.4721 283.137 89.503 282.798 90.307 282.126C91.0016 281.476 91.4842 280.632 91.692 279.704H89.761C89.6436 280.219 89.3508 280.678 88.9328 281.002C88.5148 281.325 87.9974 281.494 87.469 281.478C87.0899 281.491 86.7138 281.406 86.3781 281.229C86.0424 281.052 85.7586 280.791 85.555 280.471C85.0635 279.652 84.8278 278.704 84.878 277.75C84.8287 276.802 85.0732 275.862 85.578 275.058C85.7913 274.738 86.0828 274.479 86.4249 274.304C86.7669 274.129 87.148 274.044 87.532 274.058C88.0665 274.014 88.5973 274.178 89.0135 274.516C89.4297 274.855 89.6989 275.341 89.765 275.873H91.699C91.6552 275.499 91.5582 275.133 91.411 274.787C91.2392 274.389 91.0104 274.019 90.732 273.687C90.387 273.287 89.9492 272.978 89.457 272.787C88.8582 272.546 88.2173 272.428 87.572 272.439C86.9165 272.409 86.2632 272.534 85.6645 272.802C85.0657 273.07 84.5381 273.475 84.124 273.984L84.117 273.993ZM96.443 268.212H94.482V270.464H96.436L96.443 268.212ZM96.385 263.574C96.8104 264.066 97.3416 264.455 97.9387 264.712C98.5359 264.969 99.1835 265.088 99.833 265.059C100.501 265.094 101.168 264.975 101.783 264.712C102.398 264.45 102.945 264.05 103.382 263.544C104.256 262.465 104.709 261.106 104.657 259.718C104.725 258.323 104.266 256.952 103.371 255.88C102.943 255.402 102.414 255.025 101.823 254.775C101.232 254.526 100.593 254.41 99.952 254.436C99.2865 254.404 98.6223 254.521 98.0084 254.78C97.3944 255.039 96.8465 255.432 96.405 255.931C95.5676 257.028 95.1123 258.37 95.1087 259.75C95.1051 261.131 95.5534 262.474 96.385 263.576V263.574ZM97.122 259.739C97.0667 258.783 97.3145 257.835 97.83 257.028C98.062 256.708 98.3705 256.45 98.7273 256.28C99.0841 256.109 99.478 256.031 99.873 256.051C100.273 256.033 100.671 256.115 101.031 256.289C101.392 256.464 101.702 256.726 101.936 257.051C102.412 257.871 102.663 258.803 102.663 259.751C102.663 260.699 102.412 261.631 101.936 262.451C101.709 262.773 101.405 263.034 101.051 263.208C100.698 263.383 100.306 263.466 99.912 263.451C99.5147 263.462 99.1209 263.374 98.7661 263.194C98.4112 263.015 98.1064 262.751 97.879 262.425C97.3426 261.637 97.0766 260.696 97.121 259.744L97.122 259.739ZM96.442 272.685H94.482V282.832H96.436L96.442 272.685ZM111.392 272.685H109.678V274.234H111.392V280.393C111.336 281.087 111.534 281.778 111.95 282.337C112.187 282.564 112.47 282.737 112.779 282.845C113.089 282.954 113.418 282.994 113.745 282.964C114.276 282.986 114.807 282.925 115.319 282.785V281.334C115.045 281.399 114.763 281.426 114.482 281.415C114.317 281.436 114.149 281.417 113.992 281.36C113.835 281.303 113.695 281.209 113.582 281.086C113.396 280.756 113.313 280.378 113.343 280V274.234H115.536V272.679H113.342V269.73H111.388L111.392 272.685ZM119.885 272.685H117.931V282.832H119.882L119.885 272.685Z" fill="black"></path><path d="M96.174 80.64H90.784H79.355L67.92 124.558L56.314 80.611H39.494L59.614 156.458L56.146 169.78H72.795L96.174 80.64Z" fill="black"></path></svg>