<svg xmlns="http://www.w3.org/2000/svg" width="398" height="385" viewBox="0 0 398 385" fill="none"><path d="M398 0H0V385H398V0Z" fill="#014FA9"></path><path d="M81.095 320.372H94.786V316.899H81.095V311.126H77.513V316.9H65.893V311.126H62.312V316.9H48.62V320.373H81.095V320.372ZM58.049 295.518C57.3602 296.69 56.9971 298.025 56.9971 299.384C56.9971 300.743 57.3602 302.078 58.049 303.25C58.7364 304.409 59.7041 305.376 60.863 306.063C62.0301 306.762 63.3674 307.126 64.728 307.115H78.678C80.0389 307.126 81.3766 306.762 82.544 306.063C83.7022 305.375 84.6693 304.408 85.357 303.25C86.0458 302.078 86.4089 300.743 86.4089 299.384C86.4089 298.025 86.0458 296.69 85.357 295.518C84.67 294.359 83.7026 293.392 82.544 292.705C81.3769 292.005 80.039 291.64 78.678 291.652H64.728C63.3672 291.64 62.0297 292.005 60.863 292.705C59.7036 293.391 58.7358 294.359 58.049 295.518ZM61.437 299.51C61.4375 298.295 61.9205 297.129 62.7799 296.27C63.6392 295.41 64.8046 294.927 66.02 294.926H77.231C78.0357 294.926 78.8264 295.137 79.5233 295.54C80.2203 295.942 80.799 296.521 81.2012 297.218C81.6034 297.915 81.815 298.705 81.8146 299.51C81.8142 300.315 81.6019 301.105 81.199 301.802C80.7967 302.498 80.2183 303.077 79.5218 303.479C78.8253 303.881 78.0353 304.093 77.231 304.094H66.02C64.8044 304.093 63.6388 303.61 62.7792 302.751C61.9197 301.891 61.4375 300.726 61.437 299.51ZM52.829 288.556H90.577V285.084H52.829V288.556ZM62.929 282.556H80.476V279.081H62.931L62.929 282.556Z" fill="white"></path><path d="M174.676 259.209C175.92 256.343 176.55 253.249 176.527 250.125C176.542 247.039 175.912 243.985 174.676 241.157C172.302 235.62 167.889 231.207 162.352 228.833C159.525 227.597 156.47 226.966 153.384 226.981C150.26 226.958 147.166 227.589 144.3 228.833C138.763 231.207 134.35 235.62 131.976 241.157C130.739 243.984 130.108 247.039 130.124 250.125C130.1 253.249 130.731 256.344 131.976 259.209C134.35 264.747 138.762 269.16 144.3 271.534C147.166 272.778 150.26 273.409 153.384 273.385C156.47 273.401 159.525 272.771 162.352 271.534C167.889 269.16 172.302 264.746 174.676 259.209ZM129.698 227.225H125.99H118.127L110.259 257.442L102.273 227.205H90.701L104.539 279.392L102.152 288.557H113.613L129.698 227.225ZM94.189 267.432L88.139 244.498L83.763 227.298H72.191L75.024 238.036H59.124V215.492H47.439V267.432H59.127V249.844H77.989L82.618 267.432H94.189Z" fill="white"></path><path d="M101.322 294.571V336.539H106.933V326.405L111.169 322.285L120.502 336.541H127.029L115.006 318.676L125.827 307.396H119.186C118.421 308.237 116.417 310.432 113.174 313.981C109.931 317.53 107.85 319.859 106.933 320.966V294.571H101.322ZM136.591 307.396H130.98V336.539H136.591V307.396ZM136.591 294.571H130.98V301.041H136.591V294.571ZM164.069 310.259C162.886 307.893 160.214 306.71 156.054 306.709C154.231 306.639 152.417 306.996 150.757 307.751C149.097 308.506 147.636 309.64 146.492 311.06C144.125 313.961 142.942 317.701 142.942 322.282C142.942 326.749 144.039 330.356 146.234 333.103C147.278 334.44 148.624 335.511 150.161 336.228C151.699 336.945 153.385 337.287 155.08 337.226C159.547 337.226 162.543 335.68 164.069 332.588C164.054 333.909 164.13 335.229 164.298 336.539H169.737C169.698 334.672 169.679 331.943 169.68 328.351V294.571H164.069V310.259ZM150.869 314.21C151.541 313.296 152.428 312.561 153.451 312.072C154.475 311.583 155.604 311.354 156.737 311.405C159.676 311.405 161.661 312.245 162.692 313.924C163.723 315.603 164.238 318.161 164.237 321.597C164.253 323.025 164.148 324.452 163.923 325.862C163.718 327.05 163.332 328.199 162.778 329.269C162.245 330.317 161.393 331.169 160.345 331.702C159.095 332.295 157.72 332.58 156.337 332.532C155.271 332.554 154.215 332.315 153.262 331.836C152.309 331.357 151.488 330.653 150.869 329.784C149.475 327.952 148.778 325.394 148.779 322.111C148.779 318.715 149.476 316.082 150.869 314.211V314.21ZM178.838 334.765C180.861 336.406 183.723 337.227 187.426 337.227C191.129 337.227 193.982 336.397 195.986 334.736C196.951 333.968 197.724 332.986 198.246 331.869C198.768 330.751 199.023 329.528 198.992 328.295C199.036 327.239 198.866 326.185 198.492 325.196C198.118 324.207 197.548 323.304 196.816 322.541C195.365 321.074 192.521 319.843 188.285 318.848C186.499 318.529 184.776 317.921 183.185 317.048C182.781 316.774 182.453 316.402 182.233 315.966C182.012 315.531 181.907 315.046 181.926 314.558C181.917 314.068 182.018 313.583 182.221 313.137C182.424 312.691 182.724 312.296 183.099 311.981C184.206 311.197 185.556 310.832 186.907 310.951C190.266 310.951 192.27 312.363 192.919 315.188H198.301C198.116 312.872 197.026 310.722 195.267 309.205C193.435 307.545 190.725 306.715 187.137 306.715C183.549 306.715 180.858 307.526 179.064 309.148C178.214 309.87 177.532 310.77 177.068 311.783C176.603 312.797 176.366 313.901 176.373 315.016C176.332 315.992 176.497 316.965 176.857 317.872C177.218 318.78 177.765 319.602 178.463 320.284C179.856 321.617 182.575 322.763 186.621 323.72C188.478 324.067 190.255 324.756 191.86 325.752C192.307 326.11 192.662 326.57 192.896 327.092C193.13 327.615 193.236 328.186 193.205 328.758C193.205 331.507 191.354 332.881 187.651 332.881C183.872 332.881 181.601 331.297 180.838 328.128H175.227C175.507 330.731 176.803 333.118 178.834 334.77" fill="white"></path></svg>