<svg xmlns="http://www.w3.org/2000/svg" width="398" height="385" viewBox="0 0 398 385" fill="none"><path d="M398 0H0V385H398V0Z" fill="black"></path><path d="M255.267 337.029V331.629C255.331 330.762 255.056 329.903 254.499 329.235C254.235 328.964 253.918 328.752 253.566 328.612C253.215 328.473 252.838 328.409 252.46 328.426C251.924 328.378 251.386 328.498 250.921 328.77C250.456 329.042 250.088 329.453 249.868 329.944C249.874 329.503 249.852 329.062 249.802 328.624H248.217C248.228 329.053 248.234 329.758 248.233 330.737V337.027H249.868V332.536C249.868 330.709 250.561 329.796 251.948 329.795C253.081 329.795 253.648 330.472 253.648 331.826V337.026L255.267 337.029ZM251.602 321.06C252.327 320.166 252.702 319.04 252.659 317.89C252.716 316.735 252.336 315.6 251.594 314.712C251.24 314.315 250.803 314.002 250.313 313.795C249.824 313.587 249.294 313.491 248.763 313.512C248.212 313.485 247.661 313.583 247.152 313.797C246.644 314.011 246.19 314.337 245.824 314.751C245.131 315.66 244.754 316.771 244.751 317.914C244.748 319.057 245.119 320.169 245.807 321.082C246.16 321.489 246.6 321.811 247.095 322.024C247.589 322.237 248.126 322.336 248.664 322.312C249.217 322.341 249.769 322.243 250.278 322.025C250.788 321.807 251.24 321.476 251.602 321.057V321.06ZM251.008 317.92C251.051 318.708 250.841 319.489 250.408 320.149C250.22 320.415 249.968 320.631 249.676 320.775C249.383 320.919 249.059 320.988 248.733 320.975C248.404 320.984 248.078 320.911 247.784 320.763C247.49 320.614 247.237 320.395 247.049 320.125C246.605 319.472 246.384 318.693 246.421 317.904C246.375 317.113 246.581 316.327 247.007 315.659C247.199 315.393 247.455 315.18 247.75 315.039C248.046 314.898 248.373 314.833 248.7 314.85C249.031 314.834 249.36 314.902 249.659 315.046C249.957 315.19 250.215 315.406 250.408 315.675C250.842 316.34 251.052 317.127 251.008 317.92ZM244.841 329.62C244.487 329.223 244.049 328.91 243.56 328.702C243.07 328.495 242.54 328.398 242.009 328.42C241.458 328.393 240.907 328.49 240.399 328.705C239.89 328.919 239.436 329.245 239.07 329.658C238.377 330.567 238 331.678 237.997 332.821C237.994 333.964 238.365 335.077 239.054 335.989C239.406 336.396 239.846 336.718 240.341 336.931C240.836 337.144 241.372 337.243 241.91 337.219C242.463 337.248 243.015 337.15 243.525 336.932C244.034 336.715 244.487 336.384 244.849 335.965C245.573 335.071 245.949 333.945 245.906 332.795C245.963 331.639 245.583 330.505 244.841 329.617V329.62ZM244.255 332.828C244.297 333.616 244.087 334.397 243.655 335.057C243.466 335.323 243.214 335.538 242.922 335.682C242.629 335.826 242.305 335.895 241.979 335.882C241.65 335.891 241.324 335.818 241.03 335.67C240.736 335.521 240.483 335.302 240.295 335.032C239.851 334.379 239.631 333.6 239.668 332.811C239.622 332.02 239.827 331.234 240.254 330.566C240.446 330.301 240.701 330.087 240.997 329.946C241.293 329.805 241.619 329.74 241.946 329.757C242.277 329.742 242.607 329.809 242.905 329.953C243.203 330.097 243.461 330.313 243.655 330.582C244.089 331.248 244.299 332.035 244.255 332.828ZM240.888 322.109H242.456C242.445 321.57 242.439 320.783 242.439 319.748V310.015H240.821V314.536C240.48 313.854 239.709 313.513 238.51 313.512C237.984 313.492 237.461 313.595 236.983 313.813C236.504 314.031 236.083 314.357 235.753 314.767C235.041 315.691 234.678 316.837 234.729 318.003C234.676 319.121 235.012 320.224 235.679 321.123C235.98 321.509 236.368 321.818 236.811 322.024C237.254 322.231 237.74 322.33 238.229 322.312C238.745 322.373 239.268 322.278 239.729 322.04C240.191 321.802 240.571 321.431 240.821 320.975C240.816 321.356 240.839 321.736 240.888 322.114V322.109ZM240.871 317.805C240.876 318.217 240.845 318.628 240.78 319.035C240.721 319.377 240.61 319.709 240.45 320.017C240.297 320.318 240.051 320.564 239.75 320.717C239.39 320.888 238.994 320.97 238.595 320.956C238.288 320.962 237.983 320.894 237.708 320.755C237.434 320.617 237.197 320.414 237.018 320.164C236.581 319.512 236.37 318.734 236.418 317.951C236.368 317.147 236.579 316.348 237.018 315.673C237.212 315.409 237.468 315.198 237.763 315.057C238.058 314.915 238.383 314.849 238.71 314.864C239.035 314.822 239.365 314.868 239.667 314.996C239.968 315.123 240.231 315.329 240.427 315.591C240.769 316.276 240.923 317.039 240.873 317.803L240.871 317.805ZM235.673 324.922H234.055V326.788H235.673V324.922ZM230.803 322.112H232.421V316.712C232.485 315.845 232.209 314.986 231.653 314.318C231.389 314.047 231.071 313.835 230.72 313.695C230.369 313.556 229.992 313.492 229.614 313.509C229.078 313.461 228.54 313.581 228.075 313.854C227.61 314.126 227.242 314.537 227.022 315.028C227.028 314.587 227.006 314.146 226.956 313.707H225.371C225.382 314.137 225.388 314.842 225.388 315.821V322.111H227.022V317.626C227.022 315.799 227.715 314.885 229.102 314.886C230.235 314.886 230.802 315.563 230.802 316.916L230.803 322.112ZM225.453 331.196C225.453 329.347 224.374 328.423 222.217 328.423C221.342 328.338 220.467 328.592 219.773 329.132C219.262 329.605 218.949 330.254 218.898 330.949H220.467C220.528 330.595 220.689 330.266 220.929 329.999C221.283 329.732 221.726 329.611 222.167 329.661C223.3 329.661 223.867 330.178 223.867 331.213V331.89H222.48C221.452 331.828 220.428 332.066 219.533 332.575C219.194 332.8 218.921 333.109 218.74 333.473C218.559 333.837 218.476 334.241 218.501 334.647C218.495 334.982 218.556 335.315 218.679 335.626C218.802 335.938 218.986 336.222 219.219 336.463C219.5 336.73 219.834 336.936 220.2 337.067C220.565 337.197 220.954 337.25 221.341 337.222C221.839 337.284 222.345 337.2 222.796 336.98C223.247 336.761 223.625 336.415 223.883 335.984C223.9 336.335 223.949 336.683 224.032 337.024H225.567C225.471 336.395 225.433 335.76 225.452 335.124L225.453 331.196ZM223.884 333.243C223.889 333.594 223.864 333.945 223.81 334.292C223.759 334.589 223.661 334.875 223.521 335.142C223.375 335.421 223.139 335.642 222.852 335.77C222.49 335.925 222.098 335.998 221.705 335.984C221.498 335.995 221.291 335.966 221.096 335.897C220.9 335.829 220.72 335.722 220.566 335.584C220.428 335.449 220.32 335.287 220.249 335.108C220.178 334.929 220.145 334.737 220.153 334.544C220.153 333.498 220.968 332.975 222.597 332.975H223.884V333.243ZM222.295 283.097C223.792 279.647 224.552 275.923 224.524 272.162C224.542 268.446 223.783 264.767 222.295 261.362C219.434 254.7 214.122 249.392 207.457 246.536C204.052 245.048 200.373 244.289 196.657 244.308C192.898 244.281 189.175 245.039 185.726 246.536C179.061 249.395 173.75 254.706 170.891 261.371C169.402 264.776 168.643 268.455 168.663 272.171C168.634 275.932 169.393 279.657 170.891 283.106C173.751 289.769 179.062 295.079 185.726 297.936C189.175 299.435 192.9 300.194 196.661 300.165C200.377 300.185 204.056 299.426 207.461 297.936C214.126 295.077 219.437 289.766 222.296 283.101L222.295 283.097ZM169.996 313.712H168.576V315H169.996V320.1C169.949 320.675 170.114 321.247 170.458 321.71C170.654 321.898 170.888 322.041 171.145 322.131C171.401 322.221 171.674 322.255 171.944 322.23C172.382 322.248 172.821 322.197 173.244 322.081V320.879C173.017 320.932 172.784 320.954 172.551 320.945C172.414 320.962 172.276 320.946 172.146 320.898C172.017 320.851 171.901 320.773 171.808 320.672C171.652 320.399 171.583 320.085 171.608 319.772V315.001H173.424V313.713H171.608V311.27H169.99L169.996 313.712ZM168.147 244.6H163.683H154.217L144.747 280.974L135.135 244.574H121.206L137.869 307.392L134.996 318.428H148.787L168.147 244.6ZM125.403 293L118.122 265.393L112.854 244.693H98.924L102.334 257.619H83.197V230.476H69.128V293.001H83.197V271.828H105.903L111.475 293.001L125.403 293ZM65.339 256.188V254.023H56.8V250.423H54.567V254.023H47.32V250.423H45.086V254.023H36.547V256.188H65.339ZM42.428 240.688C41.9978 241.419 41.7709 242.251 41.7709 243.099C41.7709 243.947 41.9978 244.779 42.428 245.51C42.8561 246.233 43.4593 246.836 44.182 247.265C44.9101 247.701 45.7443 247.928 46.593 247.921H55.293C56.1417 247.928 56.9759 247.701 57.704 247.265C58.4268 246.836 59.0302 246.233 59.459 245.51C59.8885 244.779 60.1149 243.947 60.1149 243.099C60.1149 242.251 59.8885 241.419 59.459 240.688C59.0298 239.966 58.4264 239.364 57.704 238.936C56.9761 238.499 56.1417 238.272 55.293 238.28H46.593C45.7443 238.272 44.9099 238.499 44.182 238.936C43.4593 239.365 42.8561 239.968 42.428 240.691V240.688ZM44.54 243.18C44.54 242.805 44.614 242.433 44.7576 242.086C44.9013 241.739 45.1119 241.424 45.3774 241.159C45.6429 240.893 45.9581 240.683 46.305 240.539C46.6518 240.396 47.0236 240.322 47.399 240.322H54.391C54.8931 240.319 55.3866 240.452 55.82 240.705C56.2552 240.955 56.6162 241.316 56.866 241.751C57.1175 242.185 57.25 242.679 57.25 243.181C57.25 243.682 57.1175 244.176 56.866 244.61C56.616 245.045 56.255 245.406 55.82 245.656C55.3864 245.909 54.893 246.041 54.391 246.039H47.399C46.6409 246.038 45.914 245.737 45.378 245.201C44.8419 244.665 44.5405 243.938 44.54 243.18ZM39.172 236.346H62.714V234.18H39.172V236.346ZM45.472 232.602H56.414V230.436H45.472V232.602ZM169.036 334.652C169.025 335.329 169.284 335.982 169.754 336.468C170.035 336.735 170.369 336.941 170.735 337.072C171.1 337.202 171.489 337.255 171.876 337.227C172.374 337.289 172.88 337.205 173.331 336.985C173.782 336.766 174.16 336.42 174.418 335.989C174.435 336.34 174.484 336.688 174.567 337.029H176.102C176.006 336.4 175.968 335.765 175.987 335.129V331.199C175.987 329.35 174.908 328.426 172.751 328.426C171.876 328.341 171.001 328.595 170.307 329.135C169.796 329.608 169.483 330.257 169.432 330.952H171.001C171.062 330.598 171.223 330.269 171.463 330.002C171.817 329.735 172.26 329.614 172.701 329.664C173.834 329.664 174.401 330.181 174.401 331.216V331.893H173.014C171.986 331.831 170.962 332.069 170.067 332.578C169.728 332.803 169.455 333.112 169.274 333.476C169.093 333.84 169.01 334.244 169.035 334.65L169.036 334.652ZM170.686 334.55C170.686 333.504 171.501 332.981 173.13 332.981H174.417V333.245C174.422 333.596 174.397 333.947 174.343 334.294C174.292 334.591 174.194 334.878 174.054 335.144C173.908 335.422 173.673 335.644 173.386 335.772C173.024 335.926 172.632 336 172.238 335.986C172.031 335.997 171.824 335.968 171.629 335.899C171.433 335.831 171.253 335.724 171.099 335.586C170.961 335.451 170.853 335.289 170.782 335.11C170.711 334.931 170.678 334.739 170.686 334.546V334.55ZM175.598 321.546C175.879 321.813 176.213 322.019 176.578 322.15C176.944 322.28 177.332 322.333 177.719 322.305C178.217 322.367 178.723 322.283 179.174 322.063C179.626 321.844 180.004 321.498 180.262 321.067C180.278 321.418 180.328 321.766 180.411 322.107H181.947C181.851 321.478 181.812 320.843 181.831 320.207V316.289C181.831 314.44 180.753 313.516 178.596 313.515C177.72 313.43 176.846 313.684 176.152 314.225C175.641 314.698 175.328 315.347 175.277 316.041H176.847C176.909 315.687 177.069 315.358 177.31 315.092C177.664 314.825 178.107 314.704 178.547 314.754C179.68 314.754 180.247 315.271 180.247 316.305V316.982H178.86C177.832 316.92 176.808 317.158 175.913 317.668C175.574 317.893 175.301 318.202 175.12 318.566C174.939 318.93 174.856 319.334 174.881 319.74C174.875 320.075 174.936 320.408 175.059 320.719C175.182 321.031 175.366 321.315 175.599 321.556L175.598 321.546ZM176.532 319.641C176.532 318.595 177.346 318.072 178.975 318.072H180.263V318.336C180.267 318.687 180.242 319.038 180.189 319.385C180.137 319.682 180.04 319.968 179.9 320.235C179.754 320.513 179.518 320.734 179.231 320.862C178.869 321.017 178.477 321.09 178.084 321.077C177.877 321.088 177.67 321.059 177.475 320.99C177.279 320.922 177.099 320.815 176.945 320.677C176.807 320.542 176.699 320.38 176.628 320.201C176.557 320.022 176.524 319.83 176.532 319.637V319.641ZM179.702 334.598H178.084C178.165 335.349 178.538 336.037 179.124 336.513C179.843 337.028 180.717 337.279 181.6 337.223C182.482 337.28 183.356 337.026 184.069 336.505C184.347 336.283 184.57 336 184.72 335.678C184.87 335.356 184.944 335.003 184.935 334.648C184.948 334.343 184.899 334.039 184.791 333.754C184.683 333.469 184.519 333.209 184.308 332.989C183.594 332.428 182.746 332.061 181.848 331.924C181.333 331.831 180.837 331.656 180.379 331.404C180.262 331.325 180.167 331.218 180.104 331.092C180.04 330.966 180.009 330.826 180.015 330.685C180.013 330.544 180.042 330.404 180.1 330.275C180.159 330.147 180.246 330.033 180.354 329.942C180.673 329.714 181.063 329.608 181.454 329.642C181.844 329.587 182.24 329.683 182.562 329.91C182.884 330.137 183.108 330.478 183.187 330.864H184.739C184.686 330.196 184.372 329.576 183.864 329.139C183.174 328.674 182.362 328.424 181.531 328.421C180.699 328.418 179.885 328.662 179.192 329.122C178.947 329.33 178.75 329.59 178.616 329.882C178.482 330.175 178.414 330.493 178.416 330.815C178.404 331.096 178.451 331.376 178.555 331.638C178.658 331.899 178.815 332.136 179.016 332.333C179.708 332.85 180.515 333.19 181.368 333.324C181.904 333.424 182.416 333.623 182.879 333.91C183.008 334.013 183.11 334.146 183.178 334.297C183.245 334.447 183.276 334.612 183.267 334.777C183.267 335.569 182.734 335.965 181.667 335.966C181.227 336.027 180.781 335.919 180.417 335.665C180.053 335.411 179.798 335.029 179.703 334.595L179.702 334.598ZM184.177 317.995C184.144 319.09 184.478 320.165 185.126 321.049C185.458 321.471 185.888 321.806 186.378 322.025C186.869 322.243 187.405 322.339 187.941 322.304C188.455 322.312 188.966 322.231 189.452 322.065C189.851 321.937 190.217 321.722 190.524 321.436C190.771 321.196 190.985 320.924 191.16 320.627C191.316 320.352 191.443 320.061 191.539 319.76H189.905C189.769 320.109 189.544 320.417 189.253 320.652C188.88 320.898 188.436 321.014 187.99 320.982C187.683 320.994 187.378 320.93 187.102 320.796C186.825 320.662 186.586 320.462 186.405 320.214C185.996 319.633 185.785 318.935 185.805 318.225H191.65C191.676 317.995 191.687 317.763 191.683 317.531C191.685 317.051 191.621 316.573 191.493 316.111C191.365 315.658 191.165 315.229 190.899 314.84C190.607 314.425 190.211 314.095 189.751 313.883C189.214 313.632 188.627 313.507 188.034 313.519C187.491 313.488 186.949 313.585 186.452 313.803C185.954 314.021 185.515 314.354 185.17 314.774C184.473 315.705 184.12 316.848 184.17 318.01L184.177 317.995ZM185.854 317.118C186.008 315.556 186.729 314.775 188.017 314.774C188.301 314.756 188.585 314.806 188.845 314.92C189.106 315.033 189.336 315.207 189.517 315.426C189.876 315.916 190.062 316.511 190.045 317.118H185.854ZM188.231 334.606H186.613C186.694 335.356 187.068 336.044 187.653 336.521C188.372 337.036 189.247 337.287 190.13 337.231C191.011 337.288 191.885 337.034 192.598 336.513C192.876 336.292 193.099 336.009 193.25 335.686C193.4 335.364 193.474 335.011 193.465 334.656C193.478 334.351 193.429 334.047 193.321 333.762C193.213 333.477 193.048 333.217 192.837 332.997C192.123 332.436 191.275 332.069 190.377 331.932C189.863 331.839 189.366 331.663 188.908 331.412C188.791 331.333 188.697 331.225 188.633 331.1C188.57 330.974 188.539 330.834 188.545 330.693C188.543 330.552 188.572 330.412 188.63 330.283C188.689 330.155 188.775 330.041 188.883 329.95C189.202 329.722 189.592 329.616 189.983 329.65C190.373 329.595 190.77 329.691 191.092 329.918C191.414 330.145 191.637 330.486 191.717 330.872H193.269C193.216 330.204 192.901 329.585 192.394 329.147C191.704 328.682 190.892 328.432 190.06 328.429C189.228 328.426 188.414 328.67 187.721 329.13C187.476 329.338 187.279 329.598 187.145 329.89C187.011 330.183 186.943 330.501 186.945 330.823C186.933 331.104 186.98 331.384 187.084 331.646C187.187 331.907 187.344 332.144 187.545 332.341C188.237 332.858 189.045 333.198 189.898 333.332C190.433 333.432 190.945 333.631 191.408 333.918C191.537 334.021 191.639 334.154 191.707 334.305C191.774 334.455 191.805 334.62 191.796 334.785C191.796 335.577 191.263 335.973 190.196 335.974C189.756 336.035 189.309 335.927 188.945 335.673C188.581 335.419 188.326 335.037 188.231 334.603V334.606ZM195.647 310.015H194.029V322.115H195.647V319.195L196.869 318.006L199.56 322.117H201.447L197.98 316.966L201.1 313.713H199.185C198.965 313.956 198.387 314.589 197.452 315.613C196.517 316.637 195.917 317.308 195.652 317.627L195.647 310.015ZM196.307 329.666C195.614 330.575 195.237 331.686 195.234 332.829C195.231 333.972 195.602 335.085 196.291 335.997C196.643 336.404 197.083 336.726 197.578 336.939C198.073 337.152 198.609 337.251 199.147 337.227C199.7 337.256 200.252 337.158 200.762 336.94C201.271 336.723 201.724 336.392 202.086 335.973C202.81 335.079 203.185 333.953 203.142 332.803C203.199 331.647 202.819 330.513 202.077 329.625C201.723 329.228 201.286 328.915 200.796 328.708C200.307 328.5 199.777 328.404 199.246 328.425C198.695 328.398 198.144 328.495 197.636 328.71C197.127 328.924 196.673 329.25 196.307 329.663V329.666ZM196.907 332.816C196.861 332.025 197.066 331.239 197.493 330.571C197.685 330.305 197.94 330.092 198.236 329.951C198.532 329.81 198.858 329.745 199.185 329.762C199.516 329.747 199.846 329.814 200.144 329.958C200.442 330.102 200.7 330.318 200.894 330.587C201.288 331.267 201.496 332.039 201.496 332.824C201.496 333.61 201.288 334.382 200.894 335.062C200.705 335.328 200.453 335.543 200.161 335.687C199.868 335.831 199.544 335.9 199.218 335.887C198.889 335.896 198.563 335.823 198.269 335.675C197.975 335.526 197.722 335.307 197.534 335.037C197.09 334.384 196.87 333.605 196.907 332.816ZM201.807 313.71L204.234 322.11H206.034C207.113 318.225 207.696 316.007 207.784 315.456H207.801C207.811 315.534 208.378 317.752 209.501 322.11H211.251L213.827 313.71H212.192C211.224 317.266 210.635 319.523 210.426 320.48H210.409C210.321 320.006 209.738 317.749 208.659 313.71H207.091C206.034 317.464 205.418 319.77 205.242 320.628H205.225C205.126 320.012 204.56 317.706 203.525 313.71H201.807ZM206.047 329.707C205.338 330.605 204.97 331.725 205.007 332.869C204.946 334.015 205.304 335.145 206.014 336.047C206.357 336.441 206.785 336.752 207.265 336.956C207.746 337.16 208.266 337.253 208.788 337.227C209.654 337.281 210.508 337 211.173 336.443C211.751 335.906 212.152 335.206 212.325 334.436H210.725C210.628 334.863 210.385 335.244 210.039 335.512C209.692 335.78 209.263 335.919 208.825 335.906C208.511 335.917 208.199 335.846 207.921 335.7C207.643 335.554 207.408 335.337 207.24 335.072C206.833 334.393 206.637 333.609 206.678 332.818C206.637 332.033 206.839 331.255 207.256 330.589C207.433 330.325 207.675 330.111 207.958 329.966C208.241 329.822 208.556 329.752 208.874 329.764C209.316 329.728 209.755 329.863 210.1 330.143C210.444 330.422 210.668 330.824 210.723 331.264H212.323C212.287 330.954 212.206 330.651 212.083 330.364C211.941 330.036 211.752 329.73 211.522 329.456C211.235 329.126 210.873 328.871 210.465 328.713C209.969 328.514 209.439 328.416 208.905 328.425C208.362 328.4 207.821 328.503 207.325 328.725C206.829 328.947 206.392 329.283 206.049 329.704L206.047 329.707ZM216.249 324.924H214.631V326.79H216.249V324.924ZM216.2 321.082C216.553 321.489 216.993 321.811 217.487 322.024C217.982 322.237 218.518 322.336 219.056 322.312C219.609 322.341 220.162 322.243 220.671 322.025C221.18 321.808 221.633 321.476 221.995 321.057C222.719 320.163 223.095 319.037 223.052 317.887C223.109 316.731 222.729 315.597 221.987 314.709C221.633 314.312 221.195 313.999 220.706 313.791C220.216 313.584 219.686 313.487 219.155 313.509C218.604 313.482 218.054 313.58 217.545 313.794C217.036 314.009 216.583 314.335 216.217 314.748C215.524 315.657 215.147 316.768 215.144 317.911C215.141 319.054 215.512 320.166 216.2 321.079V321.082ZM216.811 317.901C216.765 317.11 216.97 316.324 217.397 315.656C217.589 315.39 217.844 315.177 218.14 315.036C218.436 314.895 218.762 314.83 219.089 314.847C219.42 314.831 219.75 314.899 220.048 315.043C220.347 315.187 220.604 315.403 220.798 315.672C221.193 316.351 221.401 317.123 221.401 317.909C221.401 318.695 221.193 319.467 220.798 320.146C220.61 320.412 220.358 320.628 220.065 320.772C219.772 320.916 219.448 320.985 219.122 320.972C218.793 320.981 218.467 320.908 218.173 320.759C217.879 320.611 217.626 320.392 217.438 320.122C216.994 319.469 216.774 318.69 216.811 317.901ZM216.249 328.62H214.631V337.02H216.249V328.62ZM228.631 328.62H227.211V329.907H228.631V335.007C228.584 335.582 228.749 336.154 229.093 336.617C229.289 336.805 229.523 336.948 229.78 337.038C230.036 337.128 230.309 337.162 230.579 337.137C231.017 337.154 231.456 337.104 231.879 336.988V335.788C231.652 335.841 231.418 335.863 231.185 335.854C231.048 335.871 230.91 335.855 230.781 335.808C230.652 335.76 230.535 335.683 230.442 335.582C230.287 335.309 230.217 334.995 230.242 334.682V329.913H232.058V328.626H230.242V326.182H228.624L228.631 328.62ZM235.665 328.62H234.047V337.02H235.665V328.62Z" fill="white"></path></svg>