<svg xmlns="http://www.w3.org/2000/svg" width="398" height="385" viewBox="0 0 398 385" fill="none"><path d="M398 0H0V385H398V0Z" fill="#0A8047"></path><path d="M77.99 269.774V266.315H64.351V260.563H60.783V266.315H49.207V260.563H45.64V266.315H32V269.774H77.99ZM41.393 245.015C40.7072 246.182 40.3457 247.511 40.3457 248.865C40.3457 250.219 40.7072 251.548 41.393 252.715C42.0771 253.868 43.0399 254.831 44.193 255.515C45.3558 256.212 46.6884 256.575 48.044 256.563H61.944C63.2996 256.575 64.6321 256.212 65.795 255.515C66.9479 254.831 67.9106 253.868 68.595 252.715C69.2815 251.548 69.6434 250.219 69.6434 248.865C69.6434 247.511 69.2815 246.182 68.595 245.015C67.9109 243.862 66.9481 242.899 65.795 242.215C64.6321 241.518 63.2996 241.156 61.944 241.167H48.044C46.691 241.156 45.3611 241.517 44.2 242.212C43.0468 242.896 42.084 243.859 41.4 245.012L41.393 245.015ZM44.774 248.989C44.7699 248.187 44.9816 247.398 45.387 246.706C45.7859 246.011 46.3622 245.435 47.057 245.036C47.7492 244.631 48.5378 244.419 49.34 244.423H60.5C61.3022 244.419 62.0907 244.631 62.783 245.036C63.4775 245.435 64.0538 246.011 64.453 246.706C64.8543 247.4 65.0657 248.187 65.0657 248.989C65.0657 249.791 64.8543 250.578 64.453 251.272C64.0538 251.967 63.4775 252.543 62.783 252.942C62.0905 253.347 61.3021 253.559 60.5 253.555H49.333C48.1222 253.554 46.9611 253.073 46.1049 252.217C45.2488 251.361 44.7675 250.2 44.767 248.989H44.774ZM36.194 238.08H73.8V234.621H36.194V238.08ZM46.257 232.1H63.735V228.641H46.256L46.257 232.1Z" fill="white"></path><path d="M209.618 272.611C210.857 269.756 211.485 266.674 211.462 263.562C211.477 260.488 210.849 257.445 209.618 254.628C207.253 249.114 202.859 244.72 197.345 242.355C194.528 241.124 191.485 240.496 188.411 240.511C185.299 240.488 182.216 241.116 179.361 242.355C173.845 244.721 169.45 249.117 167.084 254.633C165.852 257.449 165.224 260.493 165.24 263.567C165.215 266.679 165.844 269.762 167.084 272.616C169.45 278.132 173.845 282.528 179.361 284.894C182.216 286.134 185.299 286.762 188.411 286.738C191.485 286.754 194.528 286.126 197.345 284.894C202.861 282.527 207.255 278.129 209.618 272.611ZM164.818 240.749H161.118H153.288L145.45 270.849L137.495 240.728H125.967L139.757 292.714L137.38 301.844H148.792L164.818 240.749ZM129.443 280.803L123.418 257.955L119.056 240.825H107.528L110.35 251.525H94.518V229.055H82.871V280.803H94.518V263.281H113.308L117.918 280.803H129.443ZM226.295 294.882H224.957Z" fill="white"></path><path d="M88.595 313.434H95.516V308.034H88.595V304.507C88.595 302.062 88.964 300.308 89.702 299.247C90.1298 298.694 90.6903 298.258 91.3316 297.98C91.9728 297.702 92.674 297.59 93.37 297.655C94.3467 297.627 95.323 297.72 96.277 297.931V292.257C94.966 291.924 93.6134 291.784 92.262 291.842C88.6167 291.842 85.9637 292.961 84.303 295.198C82.5368 297.791 81.6625 300.888 81.812 304.022V308.036H76.281V313.436H81.817V343.263H88.595V313.434ZM113.444 307.205C108.783 307.16 105.369 308.153 103.202 310.182C101.057 312.162 99.7458 314.883 99.534 317.794H106.108C106.365 316.311 107.037 314.932 108.045 313.815C108.968 312.87 110.699 312.398 113.236 312.397C117.987 312.397 120.363 314.564 120.364 318.897V321.735H114.551C109.198 321.735 105.081 322.692 102.198 324.607C99.3153 326.522 97.8737 329.417 97.873 333.292C97.85 334.696 98.104 336.092 98.6205 337.398C99.1369 338.704 99.9057 339.896 100.883 340.905C102.891 343.028 105.855 344.089 109.776 344.089C115.081 344.089 118.634 342.359 120.434 338.899C120.502 340.369 120.711 341.828 121.057 343.258H127.495C127.093 340.625 126.931 337.961 127.011 335.299V318.832C127.011 311.08 122.489 307.204 113.446 307.204L113.444 307.205ZM120.125 331.804C119.91 333.048 119.501 334.251 118.914 335.368C118.302 336.534 117.316 337.46 116.114 337.998C114.596 338.647 112.954 338.954 111.304 338.898C109.555 338.999 107.838 338.402 106.529 337.237C105.951 336.672 105.499 335.992 105.201 335.241C104.903 334.49 104.767 333.684 104.8 332.877C104.8 328.494 108.214 326.302 115.042 326.302H120.442V327.409C120.46 328.88 120.355 330.349 120.13 331.803L120.125 331.804ZM143.895 343.261V323.745C143.895 320.378 144.564 317.737 145.903 315.821C146.557 314.88 147.441 314.122 148.471 313.62C149.501 313.117 150.642 312.886 151.786 312.949C156.119 312.949 158.286 315.694 158.286 321.184V343.261H164.93V323.054C164.93 319.871 165.563 317.391 166.83 315.614C167.503 314.716 168.392 314.001 169.413 313.535C170.435 313.07 171.557 312.869 172.677 312.95C175.077 312.95 176.784 313.711 177.798 315.233C178.861 316.93 179.391 318.907 179.32 320.909V343.262H185.964V320.147C185.964 315.718 184.914 312.453 182.815 310.354C181.768 309.312 180.519 308.495 179.144 307.953C177.769 307.412 176.299 307.157 174.822 307.205C169.792 307.205 166.078 309.235 163.68 313.296C163.01 311.478 161.773 309.925 160.151 308.866C158.803 308.06 157.307 307.534 155.752 307.317C154.196 307.1 152.613 307.198 151.096 307.605C149.58 308.011 148.16 308.718 146.922 309.684C145.683 310.65 144.651 311.854 143.887 313.226C143.906 311.492 143.814 309.758 143.611 308.036H137.105C137.15 309.973 137.173 312.995 137.174 317.102V343.261H143.895ZM202.859 308.035H196.077V343.261H202.859V308.035ZM202.859 292.535H196.077V300.355H202.859V292.535ZM220.437 292.535H213.655V343.263H220.437V292.535ZM240.437 344.579C239.833 346.699 238.77 348.661 237.322 350.323C235.978 351.468 234.239 352.04 232.478 351.915C231.528 351.916 230.58 351.847 229.64 351.707V357.52C231.069 357.659 232.384 357.728 233.584 357.728C237.321 357.728 240.101 356.861 241.924 355.128C243.747 353.395 245.535 349.946 247.288 344.782L259.814 308.034H252.963C248.118 323.215 245.141 332.928 244.034 337.175H243.965C243.088 333.761 239.974 324.049 234.622 308.039H227.285L240.437 344.579Z" fill="white"></path></svg>