<svg xmlns="http://www.w3.org/2000/svg" width="398" height="385" viewBox="0 0 398 385" fill="none"><path d="M398 0H0V385H398V0Z" fill="#FF5601"></path><path d="M101.686 331.585V328.375H89.026V323.035H85.715V328.375H74.971V323.035H71.66V328.375H59V331.585H101.686ZM67.718 308.605C67.0809 309.689 66.7449 310.923 66.7449 312.18C66.7449 313.436 67.0809 314.671 67.718 315.754C68.3534 316.825 69.2473 317.719 70.318 318.354C71.3972 319.001 72.6339 319.337 73.892 319.327H86.792C88.0504 319.337 89.2874 319.001 90.367 318.354C91.4375 317.718 92.3315 316.825 92.967 315.754C93.6041 314.671 93.94 313.436 93.94 312.18C93.94 310.923 93.6041 309.689 92.967 308.605C92.3321 307.534 91.438 306.64 90.367 306.005C89.2879 305.357 88.0506 305.02 86.792 305.031H73.892C72.6348 305.019 71.3986 305.354 70.32 306C69.2488 306.635 68.3547 307.529 67.72 308.6L67.718 308.605ZM70.85 312.3C70.8458 311.555 71.0424 310.823 71.419 310.181C71.789 309.536 72.324 309.001 72.969 308.631C73.6114 308.255 74.3434 308.058 75.088 308.062H85.455C86.1996 308.058 86.9315 308.255 87.574 308.631C88.2188 309.001 88.7536 309.536 89.124 310.181C89.4967 310.825 89.693 311.556 89.693 312.3C89.693 313.044 89.4967 313.775 89.124 314.419C88.7538 315.064 88.2189 315.599 87.574 315.97C86.9312 316.346 86.1994 316.542 85.455 316.538H75.088C73.9643 316.537 72.8868 316.09 72.0922 315.296C71.2976 314.501 70.8508 313.424 70.85 312.3ZM62.892 302.168H97.792V298.957H62.892V302.168ZM72.232 296.618H88.454V293.407H72.232V296.618Z" fill="white"></path><path d="M180.783 278.421C181.934 275.771 182.517 272.91 182.495 270.021C182.509 267.168 181.926 264.343 180.783 261.729C178.587 256.609 174.508 252.53 169.388 250.334C166.774 249.192 163.949 248.609 161.096 248.623C158.207 248.601 155.346 249.184 152.696 250.334C147.576 252.53 143.496 256.61 141.3 261.73C140.156 264.344 139.573 267.169 139.588 270.022C139.565 272.911 140.149 275.772 141.3 278.422C143.496 283.543 147.578 287.622 152.7 289.816C155.35 290.967 158.211 291.551 161.1 291.528C163.953 291.543 166.778 290.96 169.392 289.816C174.513 287.62 178.593 283.538 180.787 278.416L180.783 278.421ZM139.2 248.848H135.767H128.5L121.222 276.787L113.838 248.83H103.138L115.938 297.081L113.731 305.555H124.324L139.2 248.848ZM106.364 286.025L100.77 264.819L96.723 248.919H86.023L88.642 258.848H73.942V238H63.138V286.025H73.945V269.762H91.385L95.664 286.025H106.364ZM196.258 299.094H195.016Z" fill="white"></path><path d="M134.023 315.424V335.273C134.023 338.099 134.623 340.186 135.823 341.535C137.023 342.884 138.95 343.558 141.604 343.559C143.315 343.629 145.027 343.434 146.678 342.981V338.292C145.794 338.499 144.885 338.585 143.978 338.549C143.447 338.615 142.907 338.553 142.404 338.369C141.902 338.184 141.45 337.883 141.087 337.489C140.485 336.426 140.216 335.207 140.316 333.989V315.424H147.382V310.414H140.318V300.907H134.023V310.414H128.5V315.424H134.023ZM179.951 325.252C179.959 323.386 179.71 321.527 179.212 319.728C178.716 317.964 177.935 316.294 176.9 314.782C175.765 313.169 174.225 311.884 172.435 311.056C170.346 310.079 168.061 309.596 165.755 309.643C160.915 309.643 157.2 311.27 154.61 314.525C152.02 317.78 150.725 321.976 150.724 327.115C150.595 331.378 151.896 335.561 154.418 339C156.88 342.255 160.531 343.882 165.37 343.882C167.368 343.912 169.356 343.597 171.247 342.951C172.807 342.437 174.233 341.583 175.422 340.451C176.382 339.516 177.214 338.457 177.895 337.303C178.504 336.234 178.999 335.103 179.373 333.931H173.014C172.486 335.289 171.611 336.485 170.476 337.399C169.025 338.358 167.297 338.81 165.562 338.684C164.368 338.727 163.182 338.477 162.108 337.955C161.034 337.433 160.104 336.655 159.4 335.69C157.815 333.427 157.004 330.712 157.087 327.95H179.826C179.928 327.054 179.971 326.152 179.955 325.25L179.951 325.252ZM165.695 314.523C166.801 314.452 167.907 314.645 168.924 315.086C169.94 315.527 170.837 316.204 171.54 317.06C172.937 318.966 173.66 321.282 173.596 323.644H157.276C157.876 317.564 160.681 314.524 165.691 314.523H165.695ZM214.379 325.25C214.387 323.384 214.138 321.525 213.641 319.726C213.145 317.962 212.363 316.292 211.328 314.78C210.194 313.167 208.654 311.882 206.864 311.054C204.775 310.077 202.489 309.594 200.183 309.641C195.344 309.641 191.629 311.268 189.039 314.523C186.449 317.778 185.154 321.974 185.153 327.113C185.023 331.376 186.323 335.561 188.846 339C191.308 342.255 194.959 343.882 199.798 343.882C201.796 343.912 203.784 343.597 205.675 342.951C207.235 342.437 208.661 341.583 209.851 340.451C210.811 339.516 211.643 338.457 212.324 337.303C212.932 336.233 213.427 335.103 213.801 333.931H207.442C206.914 335.289 206.04 336.485 204.905 337.399C203.454 338.358 201.726 338.81 199.991 338.684C198.797 338.729 197.61 338.48 196.535 337.959C195.46 337.438 194.529 336.662 193.824 335.697C192.24 333.433 191.429 330.719 191.512 327.957H214.251C214.352 327.061 214.395 326.159 214.379 325.257V325.25ZM200.119 314.53C201.225 314.459 202.332 314.652 203.348 315.093C204.365 315.534 205.262 316.211 205.965 317.067C207.361 318.973 208.084 321.289 208.02 323.651H191.7C192.3 317.571 195.105 314.531 200.115 314.53H200.119ZM227.736 343.114V325.637C227.736 318.53 230.434 314.976 235.829 314.975C240.239 314.975 242.444 317.608 242.445 322.875V343.109H248.74V322.109C248.74 317.998 247.744 314.893 245.753 312.795C244.728 311.74 243.491 310.915 242.123 310.372C240.756 309.83 239.29 309.582 237.82 309.647C232.895 309.647 229.533 311.617 227.736 315.557C227.758 313.84 227.672 312.124 227.479 310.418H221.312C221.354 312.085 221.375 314.825 221.376 318.64V343.113L227.736 343.114ZM258.954 341.123C261.221 342.965 264.432 343.886 268.589 343.885C272.746 343.884 275.946 342.953 278.189 341.091C279.271 340.229 280.139 339.128 280.724 337.874C281.309 336.62 281.596 335.247 281.561 333.864C281.61 332.679 281.419 331.496 281 330.387C280.58 329.278 279.941 328.265 279.12 327.409C277.492 325.761 274.302 324.38 269.549 323.266C267.546 322.906 265.615 322.222 263.832 321.242C263.378 320.935 263.01 320.517 262.763 320.028C262.516 319.539 262.397 318.995 262.419 318.448C262.409 317.899 262.522 317.354 262.75 316.854C262.978 316.354 263.315 315.911 263.736 315.558C264.977 314.677 266.492 314.267 268.008 314.401C271.775 314.401 274.023 315.986 274.752 319.155H280.8C280.594 316.557 279.373 314.145 277.4 312.442C275.344 310.579 272.304 309.648 268.279 309.648C264.254 309.648 261.235 310.558 259.222 312.378C258.268 313.188 257.504 314.197 256.982 315.335C256.46 316.473 256.194 317.711 256.203 318.962C256.157 320.056 256.343 321.148 256.746 322.166C257.15 323.185 257.764 324.106 258.547 324.872C260.11 326.371 263.162 327.656 267.701 328.726C270.612 329.454 272.571 330.214 273.578 331.006C274.079 331.408 274.478 331.923 274.74 332.51C275.003 333.096 275.122 333.736 275.088 334.378C275.088 337.462 273.011 339.004 268.857 339.003C264.617 339.003 262.069 337.226 261.213 333.672H254.918C255.232 336.592 256.687 339.27 258.965 341.123" fill="white"></path></svg>