<svg xmlns="http://www.w3.org/2000/svg" width="279" height="279" viewBox="0 0 279 279" fill="none"><path d="M139.5 279C167.09 279 194.061 270.818 217.002 255.49C239.943 240.162 257.823 218.375 268.381 192.884C278.94 167.394 281.702 139.345 276.32 112.285C270.937 85.2245 257.651 60.368 238.141 40.8586C218.632 21.3492 193.775 8.06309 166.715 2.68046C139.655 -2.70218 111.606 0.0603819 86.1157 10.6188C60.6254 21.1772 38.8384 39.0573 23.51 61.998C8.18153 84.9386 0 111.91 0 139.5C0 176.498 14.6973 211.98 40.8586 238.141C67.0199 264.303 102.502 279 139.5 279Z" fill="black"></path><path d="M218.015 139.5C218.015 123.97 213.41 108.789 204.782 95.8766C196.154 82.9641 183.891 72.9 169.543 66.957C155.196 61.014 139.408 59.459 124.177 62.4887C108.945 65.5185 94.9542 72.9968 83.973 83.978C72.9918 94.9592 65.5135 108.95 62.4837 124.182C59.454 139.413 61.009 155.201 66.952 169.548C72.895 183.896 82.9591 196.159 95.8716 204.787C108.784 213.415 123.965 218.02 139.495 218.02C160.32 218.02 180.292 209.747 195.017 195.022C209.742 180.297 218.015 160.325 218.015 139.5ZM213.457 139.5C213.457 154.128 209.119 168.427 200.991 180.59C192.864 192.753 181.313 202.232 167.798 207.83C154.284 213.427 139.413 214.892 125.066 212.038C110.719 209.184 97.5404 202.139 87.197 191.796C76.8535 181.452 69.8096 168.273 66.956 153.926C64.1024 139.579 65.5671 124.708 71.1651 111.194C76.7631 97.6794 86.2429 86.1284 98.4057 78.0015C110.568 69.8747 124.868 65.537 139.496 65.537C149.209 65.5371 158.827 67.4503 167.8 71.1674C176.773 74.8845 184.927 80.3326 191.795 87.2007C198.663 94.0688 204.111 102.222 207.827 111.196C211.544 120.169 213.457 129.787 213.457 139.5Z" fill="white"></path><path d="M190.97 177.796H160.44V164.917H152.454V177.796H126.545V164.917H118.559V177.796H88.029V185.54H190.97V177.796ZM109.054 130.116C107.517 132.729 106.706 135.705 106.706 138.736C106.706 141.767 107.517 144.743 109.054 147.356C110.586 149.94 112.743 152.097 115.327 153.629C117.93 155.19 120.913 156.002 123.948 155.976H155.048C158.083 156.002 161.066 155.19 163.669 153.629C166.252 152.096 168.409 149.939 169.942 147.356C171.478 144.743 172.288 141.767 172.288 138.736C172.288 135.705 171.478 132.729 169.942 130.116C168.41 127.532 166.253 125.375 163.669 123.843C161.068 122.283 158.086 121.471 155.053 121.496H123.953C120.918 121.469 117.935 122.281 115.332 123.843C112.747 125.374 110.59 127.531 109.059 130.116H109.054ZM116.612 139.016C116.614 136.307 117.691 133.709 119.606 131.793C121.521 129.877 124.119 128.799 126.828 128.796H151.828C153.624 128.787 155.389 129.261 156.939 130.168C158.495 131.061 159.785 132.351 160.678 133.907C161.577 135.46 162.05 137.223 162.05 139.018C162.05 140.812 161.577 142.575 160.678 144.128C159.785 145.683 158.494 146.974 156.939 147.867C155.389 148.774 153.624 149.248 151.828 149.239H126.828C124.118 149.237 121.519 148.16 119.602 146.244C117.686 144.327 116.609 141.728 116.607 139.018L116.612 139.016ZM97.415 114.596H181.585V106.85H97.415V114.596ZM119.94 101.21H159.061V93.464H119.94V101.21Z" fill="white"></path><path d="M100.948 55.877L104.975 54.569L102.475 46.878C102.1 45.9038 101.971 44.852 102.1 43.816C102.206 43.3966 102.429 43.0158 102.742 42.7172C103.055 42.4186 103.446 42.2144 103.87 42.128C105.436 41.62 106.531 42.3263 107.155 44.247L109.979 52.947L113.95 51.658L110.935 42.373C110.565 40.8225 109.597 39.4815 108.241 38.643C107.636 38.3335 106.974 38.1528 106.295 38.1122C105.617 38.0716 104.938 38.1719 104.3 38.407C103.471 38.6175 102.713 39.0446 102.104 39.6445C101.495 40.2445 101.056 40.9956 100.833 41.821L98.345 34.157L94.317 35.465L100.948 55.877ZM128.393 49.034C128.245 49.7102 127.906 50.3297 127.416 50.819C126.9 51.2069 126.272 51.4173 125.627 51.419C125.294 51.4397 124.931 51.443 124.538 51.429L124.752 54.804C125.409 54.8416 126.068 54.8393 126.725 54.797C128.151 54.8279 129.538 54.3251 130.613 53.387C131.659 52.0213 132.366 50.4265 132.675 48.734L136.793 32.769L132.593 33.035C131.279 39.265 130.512 43.1043 130.293 44.553H130.263C130.043 43.607 128.746 39.8987 126.372 33.428L121.853 33.715L128.393 49.034ZM150.764 34.887C149.074 36.1869 147.958 38.0936 147.65 40.203C147.177 42.2349 147.502 44.3709 148.558 46.17C149.099 47.0309 149.821 47.7637 150.674 48.3174C151.526 48.8711 152.489 49.2323 153.496 49.376C154.499 49.6227 155.544 49.6491 156.558 49.4533C157.573 49.2576 158.533 48.8443 159.372 48.242C161.041 46.9395 162.144 45.0438 162.451 42.949C162.948 40.896 162.627 38.7305 161.558 36.909C161.021 36.0666 160.309 35.3496 159.47 34.8068C158.631 34.2639 157.686 33.908 156.697 33.763C155.685 33.515 154.632 33.4869 153.608 33.6806C152.584 33.8744 151.614 34.2854 150.763 34.886L150.764 34.887ZM158.253 42.204C158.096 43.3956 157.584 44.5125 156.785 45.41C156.455 45.7469 156.044 45.9929 155.591 46.1239C155.139 46.255 154.66 46.2667 154.201 46.158C153.733 46.0829 153.292 45.8906 152.919 45.5992C152.545 45.3077 152.252 44.9265 152.065 44.491C151.626 43.3606 151.55 42.1218 151.846 40.946C151.991 39.7275 152.519 38.5865 153.354 37.687C153.688 37.3704 154.094 37.1409 154.538 37.0188C154.981 36.8967 155.448 36.8858 155.897 36.987C158.052 37.4003 158.837 39.1377 158.252 42.199L158.253 42.204ZM204.733 58.934L199.424 64.917C198.609 65.7115 198.097 66.766 197.977 67.898C198.013 68.4548 198.172 68.9967 198.443 69.4847C198.713 69.9727 199.089 70.3946 199.542 70.72C200.222 71.385 201 71.9427 201.848 72.374L203.761 70.218C203.601 70.104 203.361 69.902 203.038 69.618C202.834 69.5149 202.661 69.3605 202.534 69.1701C202.408 68.9797 202.333 68.7598 202.318 68.5318C202.302 68.3039 202.346 68.0758 202.445 67.8698C202.543 67.6639 202.694 67.4872 202.882 67.357L207.882 61.727L210.125 63.718L212.234 61.342L209.99 59.351L212.723 56.272L209.578 53.482L206.845 56.561L205.086 55L202.978 57.374L204.733 58.934ZM224.717 74.624C222.303 71.3133 219.707 70.5133 216.928 72.224L219.284 75.455C219.735 75.1872 220.263 75.0774 220.784 75.143C221.366 75.336 221.858 75.735 222.166 76.265C223.09 77.5317 222.974 78.587 221.818 79.431L221.081 79.967L219.799 78.209C218.788 76.637 217.334 75.3991 215.621 74.651C214.92 74.3948 214.165 74.3257 213.43 74.4505C212.694 74.5754 212.004 74.8899 211.427 75.363C210.402 76.0802 209.702 77.1726 209.478 78.403C209.384 79.1098 209.439 79.8285 209.64 80.5126C209.841 81.1967 210.184 81.8309 210.646 82.374C211.859 84.036 213.202 84.8283 214.673 84.751C214.25 85.0331 213.881 85.3884 213.582 85.8L215.956 89.054C216.9 88.1342 217.925 87.3014 219.018 86.566L224.173 82.806C226.973 80.7613 227.154 78.033 224.717 74.621V74.624ZM216.032 82.921C215.57 82.9236 215.116 82.8001 214.719 82.5638C214.322 82.3275 213.997 81.9874 213.779 81.58C213.585 81.3512 213.44 81.0852 213.353 80.7984C213.266 80.5115 213.238 80.2099 213.272 79.912C213.318 79.6483 213.417 79.3966 213.562 79.1717C213.708 78.9468 213.897 78.7535 214.118 78.603C214.373 78.3901 214.678 78.2469 215.005 78.1873C215.331 78.1277 215.668 78.1538 215.981 78.263C216.817 78.6691 217.521 79.3045 218.01 80.095L219.01 81.473L218.678 81.715C217.912 82.3371 217 82.7524 216.028 82.921H216.032ZM233.56 106.97C234.444 106.641 235.279 106.192 236.04 105.634C236.76 105.096 237.383 104.439 237.881 103.691C238.401 102.894 238.697 101.972 238.737 101.021C238.783 99.8963 238.588 98.7748 238.164 97.732C237.863 96.7536 237.344 95.8564 236.645 95.1084C235.946 94.3603 235.087 93.7809 234.131 93.414C232.072 92.7808 229.854 92.9096 227.883 93.777C226 94.426 224.408 95.7223 223.391 97.435C222.913 98.3258 222.648 99.3154 222.618 100.326C222.587 101.336 222.792 102.34 223.215 103.258C223.562 104.218 224.076 105.109 224.733 105.89C225.263 106.534 225.932 107.049 226.69 107.396C227.292 107.664 227.925 107.856 228.575 107.968C229.139 108.056 229.711 108.076 230.28 108.028L228.793 104.102C228.275 104.101 227.768 103.956 227.328 103.684C226.851 103.293 226.503 102.767 226.328 102.176C226.152 101.773 226.081 101.332 226.12 100.894C226.16 100.455 226.309 100.034 226.554 99.669C227.088 98.8852 227.859 98.2935 228.754 97.981L232.328 107.381C232.746 107.273 233.156 107.139 233.558 106.981L233.56 106.97ZM235.32 98.793C235.969 100.496 235.283 101.752 233.263 102.563L231.205 97.15C233.308 96.5593 234.679 97.1073 235.32 98.794V98.793ZM250.133 115.479L228.876 118.454L229.463 122.647L234.297 121.97L236.43 123.632L230.266 128.383L230.925 133.1L239.499 126.052L245.94 130.495L245.272 125.72C241.243 123.235 238.876 121.804 238.172 121.429L250.722 119.672L250.133 115.479ZM231.288 142.984L230.661 147.468C236.19 149.686 239.651 150.982 241.044 151.356V151.386C240.249 151.412 236.57 151.679 230.007 152.186L229.383 156.641L243.833 163.234L244.412 159.099C239.604 157.239 235.985 155.872 233.555 154.999V154.971C234.463 154.978 238.313 154.695 245.104 154.122L245.645 150.249C241.039 148.378 237.365 146.983 234.623 146.065L234.63 146.006C236.377 145.974 240.284 145.709 246.35 145.212L246.965 140.812L231.288 142.984ZM238.088 175.811C237.178 173.926 235.649 172.411 233.756 171.519C231.863 170.627 229.721 170.412 227.688 170.911C226.721 171.224 225.833 171.744 225.088 172.435C224.342 173.125 223.756 173.971 223.37 174.911C222.885 175.823 222.604 176.83 222.545 177.862C222.486 178.893 222.652 179.925 223.03 180.887C223.958 182.768 225.498 184.277 227.397 185.167C229.296 186.058 231.441 186.276 233.48 185.787C234.429 185.473 235.298 184.958 236.03 184.278C236.762 183.598 237.339 182.768 237.722 181.845C238.21 180.925 238.495 179.911 238.558 178.871C238.621 177.831 238.46 176.79 238.086 175.818L238.088 175.811ZM229.156 181.285C228.039 180.842 227.081 180.072 226.407 179.077C226.161 178.675 226.023 178.216 226.007 177.746C225.991 177.275 226.097 176.808 226.315 176.39C226.502 175.955 226.796 175.574 227.17 175.283C227.544 174.993 227.985 174.802 228.453 174.728C229.66 174.655 230.866 174.883 231.962 175.392C233.058 175.901 234.011 176.675 234.734 177.644C234.959 178.045 235.081 178.496 235.09 178.956C235.099 179.416 234.995 179.871 234.786 180.281C233.857 182.269 231.981 182.603 229.156 181.285ZM213.499 193.315L219.966 198.782C220.783 199.361 221.385 200.195 221.677 201.153C221.737 201.541 221.707 201.937 221.588 202.311C221.469 202.684 221.265 203.025 220.992 203.307C219.941 204.55 218.66 204.532 217.149 203.253L210.121 197.312L207.406 200.522L214.793 206.768C215.929 207.86 217.427 208.495 219.001 208.554C219.69 208.535 220.367 208.363 220.981 208.05C221.596 207.737 222.133 207.291 222.553 206.744C223.932 205.113 224.299 203.496 223.653 201.895C224.162 202.301 224.696 202.675 225.253 203.013L227.892 199.892C227.292 199.413 226.305 198.592 224.932 197.428L216.242 190.081L213.499 193.315ZM201.051 224.964C201.558 225.174 202.121 225.209 202.651 225.064C203.473 224.864 204.243 224.489 204.907 223.964C205.704 223.432 206.366 222.722 206.843 221.891C207.32 221.06 207.598 220.13 207.656 219.174C207.621 217.112 206.965 215.109 205.773 213.426C204.582 211.743 202.91 210.459 200.977 209.742C200.131 209.502 199.241 209.466 198.378 209.637C197.516 209.807 196.706 210.179 196.015 210.723C194.321 211.96 193.538 213.331 193.666 214.838C193.327 214.426 192.959 214.038 192.566 213.677L189.311 216.05C189.87 216.783 190.698 217.902 191.795 219.406L201.983 233.375L205.383 230.897L201.051 224.964ZM203.609 219.241C203.618 219.722 203.505 220.197 203.28 220.622C203.055 221.047 202.726 221.408 202.323 221.671C201.968 222.012 201.523 222.246 201.04 222.343C200.557 222.441 200.057 222.399 199.597 222.222C198.581 221.631 197.718 220.809 197.079 219.822C196.751 219.38 196.455 218.915 196.192 218.431C195.962 217.984 195.794 217.508 195.692 217.016C195.575 216.516 195.628 215.991 195.842 215.524C196.106 214.994 196.503 214.542 196.994 214.21C197.356 213.918 197.786 213.721 198.244 213.639C198.702 213.556 199.173 213.589 199.615 213.736C200.719 214.191 201.655 214.977 202.293 215.986C203.057 216.911 203.518 218.048 203.614 219.244L203.609 219.241ZM184.514 234.227C185.176 232.241 185.135 230.088 184.399 228.129C183.663 226.17 182.276 224.523 180.47 223.464C179.558 223.015 178.558 222.77 177.542 222.746C176.525 222.723 175.515 222.921 174.583 223.327C173.6 223.644 172.696 224.17 171.936 224.869C171.175 225.568 170.575 226.424 170.177 227.377C169.533 229.373 169.587 231.528 170.33 233.489C171.073 235.45 172.46 237.1 174.264 238.169C175.163 238.604 176.146 238.841 177.145 238.863C178.144 238.885 179.136 238.692 180.054 238.296C181.045 237.976 181.956 237.447 182.726 236.745C183.495 236.043 184.105 235.184 184.514 234.226V234.227ZM174.293 231.926C173.8 230.829 173.649 229.61 173.859 228.426C173.963 227.966 174.183 227.541 174.5 227.192C174.816 226.843 175.218 226.581 175.665 226.433C176.103 226.252 176.579 226.185 177.05 226.237C177.521 226.29 177.971 226.46 178.358 226.733C179.274 227.522 179.979 228.526 180.411 229.655C180.843 230.784 180.987 232.002 180.832 233.201C180.713 233.645 180.487 234.054 180.173 234.39C179.859 234.726 179.467 234.979 179.032 235.128C176.98 235.908 175.4 234.841 174.293 231.928V231.926ZM138.733 246.222C142.828 246.378 145.064 244.835 145.442 241.592L141.442 241.441C141.373 241.962 141.132 242.445 140.757 242.813C140.245 243.15 139.628 243.289 139.021 243.203C137.454 243.144 136.697 242.399 136.752 240.969L136.786 240.059L138.96 240.141C140.82 240.321 142.692 239.947 144.341 239.066C144.976 238.675 145.498 238.124 145.856 237.47C146.214 236.815 146.395 236.078 146.381 235.332C146.452 234.083 146.028 232.857 145.201 231.919C144.705 231.407 144.107 231.004 143.445 230.738C142.784 230.472 142.074 230.348 141.361 230.375C139.304 230.296 137.85 230.859 137.001 232.063C137.041 231.556 136.991 231.046 136.852 230.557L132.826 230.403C132.964 231.714 132.983 233.035 132.883 234.349L132.641 240.724C132.508 244.191 134.537 246.024 138.729 246.224L138.733 246.222ZM137.595 234.264C137.879 233.9 138.258 233.621 138.689 233.456C139.12 233.291 139.588 233.247 140.043 233.328C140.343 233.318 140.641 233.369 140.921 233.478C141.2 233.587 141.454 233.752 141.667 233.963C141.845 234.163 141.981 234.397 142.067 234.65C142.153 234.904 142.187 235.172 142.167 235.439C142.176 235.771 142.099 236.099 141.944 236.392C141.788 236.685 141.559 236.933 141.279 237.111C140.443 237.516 139.508 237.675 138.585 237.569L136.885 237.504L136.9 237.093C136.889 236.106 137.13 235.133 137.6 234.265L137.595 234.264ZM122.182 230.221C121.055 228.879 119.502 227.964 117.782 227.629C116.128 227.049 114.323 227.067 112.682 227.681C112.074 227.94 111.533 228.335 111.102 228.836C110.67 229.337 110.36 229.931 110.194 230.571C110.042 231.091 109.968 231.63 109.974 232.171C110.009 232.698 110.15 233.212 110.387 233.684C110.727 234.328 111.205 234.889 111.787 235.326C112.628 235.982 113.525 236.562 114.47 237.057C115.217 237.429 115.916 237.889 116.552 238.428C116.696 238.556 116.802 238.721 116.857 238.906C116.912 239.091 116.914 239.287 116.863 239.473C116.638 240.305 115.929 240.56 114.737 240.237C113.394 239.874 112.731 239.137 112.748 238.024L108.887 236.979C108.771 237.587 108.778 238.212 108.907 238.817C109.036 239.422 109.286 239.996 109.64 240.503C110.747 241.732 112.184 242.617 113.779 243.054C115.374 243.492 117.061 243.462 118.64 242.97C119.199 242.703 119.693 242.318 120.088 241.841C120.482 241.364 120.769 240.807 120.926 240.208C121.087 239.692 121.139 239.148 121.08 238.61C121.021 238.073 120.852 237.553 120.583 237.084C120.043 236.155 118.731 235.115 116.646 233.963C115.935 233.608 115.278 233.153 114.696 232.612C114.547 232.455 114.442 232.261 114.392 232.05C114.342 231.839 114.35 231.619 114.413 231.412C114.674 230.447 115.485 230.149 116.848 230.518C118.381 230.933 119.142 231.799 119.13 233.118L123.13 234.201C123.352 232.803 123.01 231.374 122.179 230.228L122.182 230.221ZM101.545 223.78C100.777 222.204 99.4931 220.939 97.906 220.196C96.4427 219.231 94.687 218.809 92.945 219.006C92.2918 219.109 91.6712 219.361 91.131 219.743C90.5909 220.124 90.1457 220.625 89.83 221.206C89.5566 221.673 89.3544 222.179 89.23 222.706C89.1361 223.226 89.1473 223.759 89.263 224.275C89.4356 224.982 89.7624 225.642 90.22 226.208C90.8769 227.049 91.6078 227.83 92.404 228.541C93.0378 229.082 93.6039 229.698 94.09 230.375C94.1987 230.534 94.2609 230.72 94.2693 230.913C94.2778 231.105 94.2323 231.296 94.138 231.464C93.7173 232.216 92.968 232.291 91.89 231.689C90.676 231.01 90.2117 230.132 90.497 229.057L87.007 227.106C86.7469 227.667 86.6016 228.275 86.5798 228.893C86.558 229.511 86.6601 230.128 86.88 230.706C87.5496 232.246 88.7653 233.484 90.293 234.181C91.6799 235.117 93.364 235.507 95.021 235.275C95.6281 235.152 96.201 234.898 96.7 234.531C97.1989 234.164 97.6118 233.693 97.91 233.15C98.1914 232.688 98.3746 232.173 98.4479 231.637C98.5212 231.102 98.4831 230.556 98.336 230.036C98.0373 229.005 97.017 227.677 95.275 226.052C94.6719 225.535 94.1459 224.934 93.713 224.268C93.606 224.079 93.5512 223.865 93.5542 223.648C93.5572 223.431 93.6178 223.218 93.73 223.032C94.2187 222.16 95.0787 222.068 96.31 222.756C97.6953 223.53 98.2227 224.554 97.892 225.829L101.512 227.853C102.067 226.55 102.082 225.081 101.555 223.767L101.545 223.78ZM74.293 221.468C76.3666 221.183 78.2795 220.195 79.7116 218.669C81.1437 217.142 82.008 215.17 82.16 213.083C82.1594 212.066 81.9372 211.061 81.5089 210.139C81.0807 209.217 80.4565 208.399 79.68 207.742C78.9615 207 78.0907 206.422 77.1276 206.049C76.1645 205.676 75.1319 205.516 74.101 205.58C72.0263 205.885 70.1167 206.886 68.6858 208.419C67.2548 209.951 66.3874 211.925 66.226 214.016C66.2331 215.015 66.4553 216.001 66.8773 216.907C67.2994 217.813 67.9115 218.618 68.672 219.266C69.3974 220.013 70.2747 220.597 71.2448 220.976C72.2148 221.356 73.2549 221.523 74.295 221.466L74.293 221.468ZM71.841 211.286C72.6074 210.36 73.6341 209.686 74.788 209.351C75.2462 209.241 75.7251 209.251 76.1782 209.381C76.6313 209.51 77.0432 209.754 77.374 210.09C77.7303 210.402 78.0018 210.799 78.1632 211.245C78.3246 211.69 78.3706 212.169 78.297 212.637C77.9951 213.808 77.4068 214.885 76.5852 215.771C75.7635 216.658 74.7342 217.326 73.59 217.716C73.1391 217.806 72.6731 217.783 72.2331 217.65C71.7931 217.517 71.3926 217.278 71.067 216.953C69.4603 215.457 69.7187 213.568 71.842 211.286H71.841ZM61.573 192.176C61.8163 192.541 61.96 192.963 61.99 193.4C62.02 193.838 61.9352 194.275 61.744 194.67C61.1428 195.756 60.2396 196.644 59.144 197.227C58.1721 197.916 57.0215 198.31 55.831 198.36C55.385 198.364 54.946 198.25 54.5585 198.029C54.171 197.808 53.8489 197.489 53.625 197.103C53.2432 196.608 53.0698 195.983 53.1417 195.362C53.2136 194.741 53.5252 194.172 54.01 193.777L51.846 190.31C51.4037 190.624 51.0182 191.011 50.706 191.455C50.3154 192.011 49.9997 192.616 49.767 193.255C49.4874 194.072 49.4247 194.948 49.585 195.796C49.7683 196.863 50.1682 197.881 50.76 198.788C51.2589 199.671 51.9502 200.43 52.7825 201.009C53.6148 201.588 54.5669 201.973 55.568 202.134C57.6552 202.434 59.7794 201.948 61.529 200.771C63.3365 199.764 64.7077 198.123 65.379 196.166C65.6442 195.212 65.693 194.21 65.5219 193.235C65.3508 192.259 64.9641 191.334 64.39 190.527C63.6812 189.09 62.4497 187.979 60.9479 187.421C59.4461 186.863 57.7878 186.901 56.313 187.527L58.493 191.019C59.0616 190.826 59.6795 190.836 60.2414 191.048C60.8033 191.259 61.2743 191.66 61.574 192.18L61.573 192.176ZM54.806 173.143L40.569 178.555L42.069 182.513L56.305 177.101L54.806 173.143ZM34.742 180.77L36.242 184.728L39.759 183.391L38.259 179.433L34.742 180.77ZM34.756 160.224C35.4227 164.267 37.3833 166.147 40.638 165.866L39.983 161.922C39.4586 161.957 38.9374 161.816 38.502 161.522C38.0691 161.088 37.8095 160.512 37.772 159.9C37.5147 158.352 38.092 157.461 39.504 157.228L40.404 157.079L40.76 159.226C40.9577 161.085 41.7005 162.843 42.895 164.281C43.4056 164.825 44.0492 165.226 44.7623 165.445C45.4753 165.664 46.2332 165.693 46.961 165.53C48.1991 165.35 49.316 164.688 50.069 163.689C50.4709 163.1 50.7446 162.433 50.8723 161.732C50.9999 161.03 50.9787 160.31 50.81 159.617C50.4767 157.587 49.6333 156.276 48.28 155.685C48.785 155.622 49.275 155.471 49.727 155.237L49.068 151.262C47.8118 151.66 46.5222 151.944 45.215 152.11L38.921 153.153C35.4983 153.72 34.1107 156.076 34.758 160.22L34.756 160.224ZM46.247 156.707C46.6607 156.913 47.0105 157.227 47.2588 157.617C47.5071 158.006 47.6444 158.456 47.656 158.918C47.7256 159.21 47.7349 159.512 47.6833 159.807C47.6317 160.103 47.5203 160.384 47.356 160.635C47.1962 160.85 46.9947 161.031 46.7637 161.167C46.5326 161.302 46.2767 161.39 46.011 161.425C45.6878 161.501 45.3506 161.491 45.0321 161.397C44.7137 161.304 44.4249 161.129 44.194 160.891C43.6297 160.153 43.287 159.269 43.206 158.343L42.927 156.66L43.333 156.594C44.2971 156.383 45.2992 156.421 46.244 156.707H46.247ZM36.17 140.48L44.162 140.78C45.2935 140.906 46.4333 140.631 47.384 140.005C47.7916 139.624 48.1096 139.157 48.3148 138.638C48.5201 138.12 48.6076 137.562 48.571 137.005C48.6526 136.057 48.5899 135.103 48.385 134.174L45.505 134.065C45.517 134.265 45.515 134.579 45.499 135.006C45.5491 135.229 45.5403 135.461 45.4736 135.68C45.4068 135.898 45.2843 136.096 45.1182 136.252C44.952 136.409 44.7479 136.52 44.5259 136.574C44.3039 136.628 44.0717 136.624 43.852 136.561L36.33 136.276L36.443 133.276L33.27 133.155L33.157 136.155L29.043 135.999L28.883 140.199L32.997 140.355L32.907 142.706L36.081 142.827L36.17 140.48ZM50.148 121.125L35.266 117.884L34.366 122.022L49.249 125.261L50.148 121.125ZM29.175 116.558L28.275 120.696L31.952 121.496L32.852 117.358L29.175 116.558ZM40.436 104.902C41.331 106.838 42.9451 108.349 44.936 109.115C46.8122 110.027 48.967 110.183 50.955 109.551C51.9145 109.214 52.7891 108.672 53.5179 107.963C54.2467 107.254 54.8121 106.394 55.175 105.444C55.6374 104.52 55.8941 103.507 55.9276 102.474C55.9611 101.442 55.7705 100.414 55.369 99.462C54.4672 97.5466 52.8625 96.0518 50.888 95.288C48.9955 94.3503 46.8128 94.184 44.8 94.824C43.8595 95.1613 43.0027 95.697 42.2876 96.3948C41.5726 97.0925 41.0161 97.9361 40.656 98.868C40.1902 99.7999 39.9298 100.821 39.8923 101.862C39.8549 102.903 40.0413 103.94 40.439 104.903L40.436 104.902ZM49.232 99.218C50.3586 99.6352 51.3341 100.381 52.032 101.359C52.2873 101.755 52.436 102.21 52.4635 102.681C52.491 103.151 52.3964 103.621 52.189 104.044C52.0121 104.484 51.7267 104.871 51.3595 105.171C50.9923 105.471 50.5552 105.673 50.089 105.758C48.8897 105.937 47.6646 105.737 46.584 105.187C45.4278 104.776 44.4319 104.009 43.74 102.996C43.5052 102.6 43.3717 102.153 43.3515 101.694C43.3313 101.234 43.4249 100.777 43.624 100.362C44.504 98.352 46.3707 97.971 49.224 99.219L49.232 99.218ZM64.814 86.972L57.972 81.982C57.114 81.4641 56.4529 80.6753 56.093 79.74C56.0044 79.3574 56.006 78.9594 56.0979 78.5776C56.1897 78.1957 56.3691 77.8405 56.622 77.54C57.5807 76.226 58.8597 76.1523 60.459 77.319L67.895 82.742L70.373 79.342L62.557 73.642C61.3461 72.6341 59.8066 72.1069 58.232 72.161C57.5457 72.2291 56.8832 72.4495 56.2927 72.806C55.7023 73.1626 55.1989 73.6463 54.819 74.222C53.559 75.948 53.31 77.5863 54.072 79.137C53.5368 78.7681 52.9783 78.434 52.4 78.137L49.992 81.437C50.6207 81.871 51.6637 82.6193 53.121 83.682L62.315 90.388L64.814 86.972Z" fill="white"></path><path d="M265.028 139.5C265.028 114.673 257.666 90.4027 243.873 69.7595C230.08 49.1162 210.475 33.0266 187.537 23.5255C164.6 14.0244 139.36 11.5384 115.01 16.382C90.6594 21.2255 68.2922 33.181 50.7366 50.7366C33.181 68.2922 21.2255 90.6594 16.382 115.01C11.5384 139.36 14.0244 164.6 23.5255 187.537C33.0266 210.475 49.1162 230.08 69.7594 243.873C90.4027 257.666 114.673 265.028 139.5 265.028C172.792 265.028 204.721 251.803 228.262 228.262C251.803 204.721 265.028 172.792 265.028 139.5ZM261.288 139.5C261.289 163.588 254.146 187.134 240.764 207.163C227.383 227.191 208.362 242.801 186.108 252.02C163.855 261.238 139.367 263.65 115.742 258.951C92.1174 254.252 70.4166 242.653 53.3839 225.621C36.3513 208.589 24.7518 186.888 20.0523 163.264C15.3529 139.639 17.7645 115.151 26.9823 92.8974C36.2 70.6434 51.8099 51.6226 71.8379 38.2402C91.8659 24.8578 115.412 17.715 139.5 17.715C171.8 17.715 202.776 30.5458 225.616 53.3848C248.456 76.2239 261.287 107.2 261.288 139.5Z" fill="white"></path></svg>